<?xml version="1.0" encoding="utf-8"?>
<svg width="128" height="128" viewBox="0 0 128 128" fill="none" xmlns="http://www.w3.org/2000/svg">
  <g id="icon_blanc_fond_transparent">
    <path id="Rectangle" d="M118 0C123.524 0 128 4.4764 128 10L128 118C128 123.524 123.524 128 118 128L10 128C4.4764 128 0 123.524 0 118L0 10C0 4.4764 4.4764 0 10 0L118 0Z" fill="#001708" fill-opacity="0" />
    <g id="icon" transform="translate(10 4)">
      <path id="Path" d="M0 9.23251L23.036 0" fill="none" stroke-width="1.5" stroke="#FFFFFF" stroke-linecap="round" transform="translate(52.89 34.749)" />
      <path id="Path" d="M18.5932 7.17976L0 0" fill="none" stroke-width="1.5" stroke="#FFFFFF" stroke-linecap="round" transform="translate(33.323 39.73)" />
      <path id="Path" d="M0 14.3132L23.1562 0" fill="none" stroke-width="2" stroke="#FFFFFF" stroke-linecap="round" transform="translate(52.77 14.822)" />
      <path id="Path" d="M20.4761 12.2233L0 0" fill="none" stroke-width="2" stroke="#FFFFFF" stroke-linecap="round" transform="translate(31.84 23.291)" />
      <path id="Path" d="M0 50.5987L0 0" fill="none" stroke-width="2.5" stroke="#FFFFFF" stroke-linecap="round" transform="translate(52.173 9.371)" />
      <path id="Path" d="M0 0L16.4269 13.2264" fill="none" stroke-width="2" stroke="#FFFFFF" stroke-linecap="round" transform="translate(53.021 102.541)" />
      <path id="Path" d="M0 0L0 14.8797" fill="none" stroke-width="2" stroke="#FFFFFF" stroke-linecap="round" transform="translate(52.244 102.541)" />
      <path id="Path" d="M16.4269 0L0 13.2264" fill="none" stroke-width="2" stroke="#FFFFFF" stroke-linecap="round" transform="translate(36.713 102.541)" />
      <path id="Path" d="M0 2.00806L0 1.00403C0 0.726778 0.0974159 0.490118 0.292496 0.294074C0.487389 0.0980303 0.722691 0 0.998447 0L5.99089 0C6.26655 0 6.50188 0.0980303 6.6968 0.294074C6.89184 0.490118 6.9893 0.726778 6.9893 1.00403L6.9893 6.02417C6.9893 6.30142 6.89184 6.53808 6.6968 6.73414C6.50188 6.93018 6.26655 7.02819 5.99089 7.02819L0.998447 7.02819C0.722691 7.02819 0.487389 6.93018 0.292496 6.73414C0.0974159 6.53808 0 6.30142 0 6.02417L0 2.00806Z" fill="#FFFFFF" fill-rule="evenodd" transform="translate(48.925 3.123)" />
      <path id="Path" d="M0 1.65326L0 0.826632C0 0.598402 0.0802155 0.403526 0.240685 0.24209C0.401031 0.0807018 0.594681 0 0.821472 0L4.10664 0C4.33341 0 4.52704 0.0807018 4.68741 0.24209C4.84787 0.403526 4.92808 0.598402 4.92808 0.826632L4.92808 4.13326C4.92808 4.36151 4.84787 4.55637 4.68741 4.71782C4.52704 4.87921 4.33341 4.95991 4.10664 4.95991L0.821472 4.95991C0.594681 4.95991 0.401031 4.87921 0.240685 4.71782C0.0802155 4.55637 0 4.36151 0 4.13326L0 1.65326Z" fill="#FFFFFF" fill-rule="evenodd" transform="translate(75.4 30.857)" />
      <path id="Path" d="M0 1.65325L0 0.826607C0 0.598412 0.0801659 0.403519 0.240534 0.242062C0.400961 0.0807266 0.594528 0 0.821354 0L4.10674 0C4.33356 0 4.52715 0.0807266 4.6875 0.242062C4.84792 0.403519 4.92808 0.598412 4.92808 0.826607L4.92808 4.13329C4.92808 4.36152 4.84792 4.55639 4.6875 4.71783C4.52715 4.87916 4.33356 4.95991 4.10674 4.95991L0.821354 4.95991C0.594528 4.95991 0.400961 4.87916 0.240534 4.71783C0.0801659 4.55639 0 4.36152 0 4.13329L0 1.65325Z" fill="#FFFFFF" fill-rule="evenodd" transform="translate(28.734 35.922)" />
      <path id="Path" d="M0 1.6533L0 0.826656C0 0.598362 0.0802155 0.403544 0.240654 0.242121C0.401039 0.0807228 0.594681 0 0.821472 0L5.74931 0C5.9761 0 6.16973 0.0807228 6.33009 0.242121C6.49057 0.403544 6.57078 0.598362 6.57078 0.826656L6.57078 5.78657C6.57078 6.01485 6.49057 6.20969 6.33009 6.37112C6.16973 6.53254 5.9761 6.61321 5.74931 6.61321L0.821472 6.61321C0.594681 6.61321 0.401039 6.53254 0.240654 6.37112C0.0802155 6.20969 0 6.01485 0 5.78657L0 1.6533Z" fill="#FFFFFF" fill-rule="evenodd" transform="translate(73.847 9.773)" />
      <path id="Path" d="M0 1.6533L0 0.826624C0 0.5984 0.0801868 0.403542 0.240528 0.242111C0.400948 0.0806808 0.594561 0 0.821344 0L5.74945 0C5.97626 0 6.16984 0.0806808 6.33026 0.242111C6.49064 0.403542 6.57077 0.5984 6.57077 0.826624L6.57077 5.78657C6.57077 6.01483 6.49064 6.20966 6.33026 6.3711C6.16984 6.5325 5.97626 6.61321 5.74945 6.61321L0.821344 6.61321C0.594561 6.61321 0.400948 6.5325 0.240528 6.3711C0.0801868 6.20966 0 6.01483 0 5.78657L0 1.6533Z" fill="#FFFFFF" fill-rule="evenodd" transform="translate(25.627 17.582)" />
      <path id="Path" d="M0 0C8.60545 0 12.9082 4.31953 12.9082 12.9586C12.9082 12.9586 12.9082 44.0592 12.9082 44.0592C12.9082 54.4261 16.3503 59.6095 23.2347 59.6095C16.3503 59.6095 12.9082 64.7929 12.9082 75.1598C12.9082 75.1598 12.9082 106.26 12.9082 106.26C12.9082 114.9 8.60545 119.219 0 119.219" fill="none" stroke-width="5" stroke="#FFFFFF" stroke-linecap="round" stroke-linejoin="round" transform="translate(80.765 0)" />
      <path id="Path" d="M23.2347 0C14.6293 0 10.3266 4.31953 10.3266 12.9586C10.3266 12.9586 10.3266 44.0592 10.3266 44.0592C10.3266 54.4261 6.88437 59.6096 0 59.6096C6.88437 59.6096 10.3266 64.7929 10.3266 75.1599C10.3266 75.1599 10.3266 106.261 10.3266 106.261C10.3266 114.9 14.6293 119.219 23.2347 119.219" fill="none" stroke-width="5" stroke="#FFFFFF" stroke-linejoin="round" transform="translate(0 0.781)" />
      <path id="Path" d="M0 4.95991L0 2.47995C0 1.79515 0.240585 1.21062 0.721695 0.72636C1.20284 0.242104 1.78361 0 2.46405 0L5.74944 0C6.42986 0 7.01064 0.242104 7.49177 0.72636C7.97292 1.21062 8.21347 1.79515 8.21347 2.47995L8.21347 40.5059C8.21347 41.1907 7.97292 41.7753 7.49177 42.2595C7.01064 42.7437 6.42986 42.9859 5.74944 42.9859L2.46405 42.9859C1.78361 42.9859 1.20284 42.7437 0.721695 42.2595C0.240585 41.7753 0 41.1907 0 40.5059L0 4.95991Z" fill="#FFFFFF" fill-rule="evenodd" transform="translate(48.925 59.349)" />
    </g>
  </g>
</svg>