<?xml version="1.0" encoding="utf-8"?>
<svg width="512" height="128" viewBox="0 0 512 128" fill="none" xmlns="http://www.w3.org/2000/svg">
  <defs>
    <clipPath id="clip_path_1">
      <rect width="250" height="29" />
    </clipPath>
  </defs>
  <g id="logo_complet_blanc_fond_transparent">
    <path id="Rectangle" d="M502 0C507.524 0 512 4.4764 512 10L512 118C512 123.524 507.524 128 502 128L10 128C4.4764 128 0 123.524 0 118L0 10C0 4.4764 4.4764 0 10 0L502 0Z" fill="#001708" fill-opacity="0" />
    <g id="icon" transform="translate(27 4)">
      <path id="Path" d="M0 9.23251L23.036 0" fill="none" stroke-width="1.5" stroke="#FFFFFF" stroke-linecap="round" transform="translate(52.89 34.749)" />
      <path id="Path" d="M18.5932 7.17976L0 0" fill="none" stroke-width="1.5" stroke="#FFFFFF" stroke-linecap="round" transform="translate(33.323 39.73)" />
      <path id="Path" d="M0 14.3132L23.1562 0" fill="none" stroke-width="2" stroke="#FFFFFF" stroke-linecap="round" transform="translate(52.77 14.822)" />
      <path id="Path" d="M20.4761 12.2233L0 0" fill="none" stroke-width="2" stroke="#FFFFFF" stroke-linecap="round" transform="translate(31.84 23.291)" />
      <path id="Path" d="M0 50.5987L0 0" fill="none" stroke-width="2.5" stroke="#FFFFFF" stroke-linecap="round" transform="translate(52.173 9.371)" />
      <path id="Path" d="M0 0L16.4269 13.2264" fill="none" stroke-width="2" stroke="#FFFFFF" stroke-linecap="round" transform="translate(53.021 102.541)" />
      <path id="Path" d="M0 0L0 14.8797" fill="none" stroke-width="2" stroke="#FFFFFF" stroke-linecap="round" transform="translate(52.244 102.541)" />
      <path id="Path" d="M16.4269 0L0 13.2264" fill="none" stroke-width="2" stroke="#FFFFFF" stroke-linecap="round" transform="translate(36.713 102.541)" />
      <path id="Path" d="M0 2.00806L0 1.00403C0 0.726778 0.0974159 0.490118 0.292496 0.294074C0.487389 0.0980303 0.722691 0 0.998447 0L5.99089 0C6.26655 0 6.50188 0.0980303 6.6968 0.294074C6.89184 0.490118 6.9893 0.726778 6.9893 1.00403L6.9893 6.02417C6.9893 6.30142 6.89184 6.53808 6.6968 6.73414C6.50188 6.93018 6.26655 7.02819 5.99089 7.02819L0.998447 7.02819C0.722691 7.02819 0.487389 6.93018 0.292496 6.73414C0.0974159 6.53808 0 6.30142 0 6.02417L0 2.00806Z" fill="#FFFFFF" fill-rule="evenodd" transform="translate(48.925 3.123)" />
      <path id="Path" d="M0 1.65326L0 0.826632C0 0.598402 0.0802155 0.403526 0.240685 0.24209C0.401031 0.0807018 0.594681 0 0.821472 0L4.10664 0C4.33341 0 4.52704 0.0807018 4.68741 0.24209C4.84787 0.403526 4.92808 0.598402 4.92808 0.826632L4.92808 4.13326C4.92808 4.36151 4.84787 4.55637 4.68741 4.71782C4.52704 4.87921 4.33341 4.95991 4.10664 4.95991L0.821472 4.95991C0.594681 4.95991 0.401031 4.87921 0.240685 4.71782C0.0802155 4.55637 0 4.36151 0 4.13326L0 1.65326Z" fill="#FFFFFF" fill-rule="evenodd" transform="translate(75.4 30.857)" />
      <path id="Path" d="M0 1.65325L0 0.826607C0 0.598412 0.0801659 0.403519 0.240534 0.242062C0.400961 0.0807266 0.594528 0 0.821354 0L4.10674 0C4.33356 0 4.52715 0.0807266 4.6875 0.242062C4.84792 0.403519 4.92808 0.598412 4.92808 0.826607L4.92808 4.13329C4.92808 4.36152 4.84792 4.55639 4.6875 4.71783C4.52715 4.87916 4.33356 4.95991 4.10674 4.95991L0.821354 4.95991C0.594528 4.95991 0.400961 4.87916 0.240534 4.71783C0.0801659 4.55639 0 4.36152 0 4.13329L0 1.65325Z" fill="#FFFFFF" fill-rule="evenodd" transform="translate(28.734 35.922)" />
      <path id="Path" d="M0 1.6533L0 0.826656C0 0.598362 0.0802155 0.403544 0.240654 0.242121C0.401039 0.0807228 0.594681 0 0.821472 0L5.74931 0C5.9761 0 6.16973 0.0807228 6.33009 0.242121C6.49057 0.403544 6.57078 0.598362 6.57078 0.826656L6.57078 5.78657C6.57078 6.01485 6.49057 6.20969 6.33009 6.37112C6.16973 6.53254 5.9761 6.61321 5.74931 6.61321L0.821472 6.61321C0.594681 6.61321 0.401039 6.53254 0.240654 6.37112C0.0802155 6.20969 0 6.01485 0 5.78657L0 1.6533Z" fill="#FFFFFF" fill-rule="evenodd" transform="translate(73.847 9.773)" />
      <path id="Path" d="M0 1.6533L0 0.826624C0 0.5984 0.0801868 0.403542 0.240528 0.242111C0.400948 0.0806808 0.594561 0 0.821344 0L5.74945 0C5.97626 0 6.16984 0.0806808 6.33026 0.242111C6.49064 0.403542 6.57077 0.5984 6.57077 0.826624L6.57077 5.78657C6.57077 6.01483 6.49064 6.20966 6.33026 6.3711C6.16984 6.5325 5.97626 6.61321 5.74945 6.61321L0.821344 6.61321C0.594561 6.61321 0.400948 6.5325 0.240528 6.3711C0.0801868 6.20966 0 6.01483 0 5.78657L0 1.6533Z" fill="#FFFFFF" fill-rule="evenodd" transform="translate(25.627 17.582)" />
      <path id="Path" d="M0 0C8.60545 0 12.9082 4.31953 12.9082 12.9586C12.9082 12.9586 12.9082 44.0592 12.9082 44.0592C12.9082 54.4261 16.3503 59.6095 23.2347 59.6095C16.3503 59.6095 12.9082 64.7929 12.9082 75.1598C12.9082 75.1598 12.9082 106.26 12.9082 106.26C12.9082 114.9 8.60545 119.219 0 119.219" fill="none" stroke-width="5" stroke="#FFFFFF" stroke-linecap="round" stroke-linejoin="round" transform="translate(80.765 0)" />
      <path id="Path" d="M23.2347 0C14.6293 0 10.3266 4.31953 10.3266 12.9586C10.3266 12.9586 10.3266 44.0592 10.3266 44.0592C10.3266 54.4261 6.88437 59.6096 0 59.6096C6.88437 59.6096 10.3266 64.7929 10.3266 75.1599C10.3266 75.1599 10.3266 106.261 10.3266 106.261C10.3266 114.9 14.6293 119.219 23.2347 119.219" fill="none" stroke-width="5" stroke="#FFFFFF" stroke-linecap="round" stroke-linejoin="round" transform="translate(0 0.781)" />
      <path id="Path" d="M0 4.95991L0 2.47995C0 1.79515 0.240585 1.21062 0.721695 0.72636C1.20284 0.242104 1.78361 0 2.46405 0L5.74944 0C6.42986 0 7.01064 0.242104 7.49177 0.72636C7.97292 1.21062 8.21347 1.79515 8.21347 2.47995L8.21347 40.5059C8.21347 41.1907 7.97292 41.7753 7.49177 42.2595C7.01064 42.7437 6.42986 42.9859 5.74944 42.9859L2.46405 42.9859C1.78361 42.9859 1.20284 42.7437 0.721695 42.2595C0.240585 41.7753 0 41.1907 0 40.5059L0 4.95991Z" fill="#FFFFFF" fill-rule="evenodd" transform="translate(48.925 59.349)" />
    </g>
    <path d="M51.5625 79.1797L41.4063 79.1797L41.4063 55.7422Q41.4063 53.75 40.7227 52.168Q40.0391 50.5859 38.8672 49.4531Q37.6953 48.3203 36.1133 47.7148Q34.5313 47.1094 32.6953 47.1094L14.9219 47.1094L14.9219 79.1797L4.76563 79.1797L4.76563 41.9922Q4.76563 40.9375 5.15625 40.0195Q5.54687 39.1016 6.25 38.418Q6.95313 37.7344 7.89063 37.3438Q8.82813 36.9531 9.88281 36.9531L32.7734 36.9531Q34.6875 36.9531 36.8164 37.3828Q38.9453 37.8125 41.0352 38.7695Q43.125 39.7266 45.0195 41.1914Q46.9141 42.6563 48.3789 44.7461Q49.8438 46.8359 50.7031 49.5703Q51.5625 52.3047 51.5625 55.7422L51.5625 79.1797ZM110.078 79.1797L95.4297 79.1797L74.9609 59.4141Q73.2422 57.8516 73.3594 55.5078Q73.4375 54.4141 73.9258 53.457Q74.4141 52.5 75.2734 51.8359L93.8281 36.875L110.078 36.875L86.1719 56.1328L110.078 79.1797ZM70.7813 79.1797L60.625 79.1797L60.625 19.1016L70.7813 19.1016L70.7813 79.1797ZM155.313 79.1797L127.773 79.1797Q125.664 79.1797 123.164 78.4375Q120.664 77.6953 118.535 75.9961Q116.406 74.2969 114.98 71.582Q113.555 68.8672 113.555 64.9219L113.555 51.1719Q113.555 49.7266 113.887 48.125Q114.219 46.5234 114.922 44.9414Q115.625 43.3594 116.738 41.9141Q117.852 40.4688 119.434 39.375Q121.016 38.2813 123.086 37.6172Q125.156 36.9531 127.773 36.9531L155.313 36.9531L155.313 47.1094L127.773 47.1094Q125.781 47.1094 124.746 48.125Q123.711 49.1406 123.711 51.25L123.711 64.9219Q123.711 66.9141 124.766 67.9688Q125.82 69.0234 127.852 69.0234L155.313 69.0234L155.313 79.1797ZM209.336 64.9219Q209.336 67.5391 208.672 69.6289Q208.008 71.7188 206.914 73.3008Q205.82 74.8828 204.375 75.9961Q202.93 77.1094 201.348 77.8125Q199.766 78.5156 198.145 78.8477Q196.523 79.1797 195.078 79.1797L176.758 79.1797Q174.648 79.1797 172.148 78.4375Q169.648 77.6953 167.52 75.9961Q165.391 74.2969 163.965 71.582Q162.539 68.8672 162.539 64.9219L162.539 51.1719Q162.539 47.2656 163.965 44.5508Q165.391 41.8359 167.52 40.1367Q169.648 38.4375 172.148 37.6953Q174.648 36.9531 176.758 36.9531L195.078 36.9531Q198.984 36.9531 201.719 38.3594Q204.453 39.7656 206.133 41.8945Q207.813 44.0234 208.574 46.5234Q209.336 49.0234 209.336 51.1719L209.336 64.9219ZM199.18 51.25Q199.18 49.1406 198.125 48.125Q197.07 47.1094 195.078 47.1094L176.836 47.1094Q174.805 47.1094 173.75 48.1445Q172.695 49.1797 172.695 51.1719L172.695 64.9219Q172.695 66.9141 173.75 67.9688Q174.805 69.0234 176.836 69.0234L195.078 69.0234Q197.148 69.0234 198.164 67.9688Q199.18 66.9141 199.18 64.9219L199.18 51.25ZM264.297 64.9219Q264.297 67.5391 263.633 69.6289Q262.969 71.7188 261.875 73.3008Q260.781 74.8828 259.336 75.9961Q257.891 77.1094 256.309 77.8125Q254.727 78.5156 253.105 78.8477Q251.484 79.1797 250.039 79.1797L231.719 79.1797Q229.102 79.1797 227.031 78.5156Q224.961 77.8516 223.379 76.7383Q221.797 75.625 220.684 74.1797Q219.57 72.7344 218.867 71.1523Q218.164 69.5703 217.832 67.9492Q217.5 66.3281 217.5 64.9219L217.5 51.1719Q217.5 47.2656 218.926 44.5508Q220.352 41.8359 222.48 40.1367Q224.609 38.4375 227.109 37.6953Q229.609 36.9531 231.719 36.9531L250.039 36.9531L250.039 47.1094L231.797 47.1094Q229.766 47.1094 228.711 48.1445Q227.656 49.1797 227.656 51.1719L227.656 64.8438Q227.656 66.9141 228.691 67.9688Q229.727 69.0234 231.719 69.0234L250.039 69.0234Q252.109 69.0234 253.125 67.9688Q254.141 66.9141 254.141 64.9219L254.141 19.1016L264.297 19.1016L264.297 64.9219ZM319.414 50.9375Q319.414 53.0469 318.672 55.4883Q317.93 57.9297 316.27 60.0195Q314.609 62.1094 311.934 63.5156Q309.258 64.9219 305.43 64.9219L287.109 64.9219L287.109 55.2734L305.43 55.2734Q307.5 55.2734 308.633 54.0039Q309.766 52.7344 309.766 50.8594Q309.766 48.8672 308.496 47.7344Q307.227 46.6016 305.43 46.6016L287.109 46.6016Q285.039 46.6016 283.906 47.8711Q282.773 49.1406 282.773 51.0156L282.773 65.1953Q282.773 67.2266 284.043 68.3594Q285.313 69.4922 287.188 69.4922L305.43 69.4922L305.43 79.1797L287.109 79.1797Q285 79.1797 282.559 78.4375Q280.117 77.6953 278.027 76.0352Q275.938 74.375 274.531 71.6992Q273.125 69.0234 273.125 65.1953L273.125 50.9375Q273.125 48.8281 273.867 46.3867Q274.609 43.9453 276.27 41.8555Q277.93 39.7656 280.605 38.3594Q283.281 36.9531 287.109 36.9531L305.43 36.9531Q307.539 36.9531 309.98 37.6953Q312.422 38.4375 314.512 40.0977Q316.602 41.7578 318.008 44.4336Q319.414 47.1094 319.414 50.9375Z" fill="#FFFFFF" transform="translate(156 0)" />
    <path d="M5.13281 4.83594L5.13281 12.6641L7.38281 12.6641Q7.61719 12.6641 7.71875 12.7539Q7.82031 12.8438 7.82031 12.9922Q7.82031 13.1328 7.71875 13.2266Q7.61719 13.3203 7.38281 13.3203L2.22656 13.3203Q1.99219 13.3203 1.89063 13.2266Q1.78906 13.1328 1.78906 12.9922Q1.78906 12.8438 1.89063 12.7539Q1.99219 12.6641 2.22656 12.6641L4.47656 12.6641L4.47656 4.83594L2.22656 4.83594Q1.99219 4.83594 1.89063 4.74609Q1.78906 4.65625 1.78906 4.50781Q1.78906 4.35938 1.89063 4.26953Q1.99219 4.17969 2.22656 4.17969L7.38281 4.17969Q7.61719 4.17969 7.71875 4.26953Q7.82031 4.35938 7.82031 4.50781Q7.82031 4.65625 7.71875 4.74609Q7.61719 4.83594 7.38281 4.83594L5.13281 4.83594ZM21.6172 13.3203L20.7734 13.3203L15.9375 5.14063L15.9375 12.6641L17.1484 12.6641Q17.3906 12.6641 17.4922 12.7539Q17.5938 12.8438 17.5938 12.9922Q17.5938 13.1328 17.4922 13.2266Q17.3906 13.3203 17.1484 13.3203L14.7344 13.3203Q14.4922 13.3203 14.3906 13.2266Q14.2891 13.1328 14.2891 12.9922Q14.2891 12.8438 14.3906 12.7539Q14.4922 12.6641 14.7344 12.6641L15.2813 12.6641L15.2813 4.83594L14.3984 4.83594Q14.1641 4.83594 14.0625 4.74609Q13.9609 4.65625 13.9609 4.50781Q13.9609 4.35938 14.0625 4.26953Q14.1641 4.17969 14.3984 4.17969L16.1172 4.17969L20.9609 12.375L20.9609 4.83594L19.75 4.83594Q19.5156 4.83594 19.4141 4.74609Q19.3125 4.65625 19.3125 4.50781Q19.3125 4.35938 19.4102 4.26953Q19.5078 4.17969 19.75 4.17969L22.1719 4.17969Q22.4063 4.17969 22.5078 4.26953Q22.6094 4.35938 22.6094 4.50781Q22.6094 4.65625 22.5078 4.74609Q22.4063 4.83594 22.1719 4.83594L21.6172 4.83594L21.6172 13.3203ZM32.3281 4.83594L32.3281 12.6641L34.0313 12.6641Q34.2656 12.6641 34.3672 12.7539Q34.4688 12.8438 34.4688 12.9922Q34.4688 13.1328 34.3672 13.2266Q34.2656 13.3203 34.0313 13.3203L29.9609 13.3203Q29.7266 13.3203 29.625 13.2266Q29.5234 13.1328 29.5234 12.9922Q29.5234 12.8438 29.625 12.7539Q29.7266 12.6641 29.9609 12.6641L31.6641 12.6641L31.6641 4.83594L28.9766 4.83594L28.9766 7.10938Q28.9766 7.35156 28.8867 7.45313Q28.7969 7.55469 28.6484 7.55469Q28.5078 7.55469 28.4141 7.45313Q28.3203 7.35156 28.3203 7.10938L28.3203 4.17969L35.6719 4.17969L35.6719 7.10938Q35.6719 7.35156 35.582 7.45313Q35.4922 7.55469 35.3438 7.55469Q35.1953 7.55469 35.1055 7.45313Q35.0156 7.35156 35.0156 7.10938L35.0156 4.83594L32.3281 4.83594ZM43.4688 8.90625L43.4688 12.6641L48.5156 12.6641L48.5156 10.7266Q48.5156 10.4922 48.6055 10.3906Q48.6953 10.2891 48.8438 10.2891Q48.9922 10.2891 49.082 10.3906Q49.1719 10.4922 49.1719 10.7266L49.1719 13.3203L41.9297 13.3203Q41.6953 13.3203 41.5938 13.2266Q41.4922 13.1328 41.4922 12.9922Q41.4922 12.8438 41.5938 12.7539Q41.6953 12.6641 41.9297 12.6641L42.8125 12.6641L42.8125 4.83594L41.9297 4.83594Q41.6953 4.83594 41.5938 4.74609Q41.4922 4.65625 41.4922 4.50781Q41.4922 4.35938 41.5938 4.26953Q41.6953 4.17969 41.9297 4.17969L48.8281 4.17969L48.8281 6.4375Q48.8281 6.67188 48.7383 6.77344Q48.6484 6.875 48.5 6.875Q48.3516 6.875 48.2617 6.77344Q48.1719 6.67188 48.1719 6.4375L48.1719 4.83594L43.4688 4.83594L43.4688 8.25L45.8203 8.25L45.8203 7.50781Q45.8203 7.27344 45.9141 7.17188Q46.0078 7.07031 46.1563 7.07031Q46.2969 7.07031 46.3906 7.17188Q46.4844 7.27344 46.4844 7.50781L46.4844 9.64844Q46.4844 9.88281 46.3906 9.98438Q46.2969 10.0859 46.1563 10.0859Q46.0078 10.0859 45.9141 9.98438Q45.8203 9.88281 45.8203 9.64844L45.8203 8.90625L43.4688 8.90625ZM58.0703 4.83594L58.0703 12.6641L62.4297 12.6641L62.4297 10.0547Q62.4297 9.82031 62.5234 9.71875Q62.6172 9.61719 62.7656 9.61719Q62.9063 9.61719 63 9.71484Q63.0938 9.8125 63.0938 10.0547L63.0938 13.3203L55.8438 13.3203Q55.6094 13.3203 55.5078 13.2266Q55.4063 13.1328 55.4063 12.9922Q55.4063 12.8438 55.5078 12.7539Q55.6094 12.6641 55.8438 12.6641L57.4063 12.6641L57.4063 4.83594L55.8438 4.83594Q55.6094 4.83594 55.5078 4.74609Q55.4063 4.65625 55.4063 4.50781Q55.4063 4.35938 55.5078 4.26953Q55.6094 4.17969 55.8438 4.17969L59.6328 4.17969Q59.8672 4.17969 59.9688 4.26953Q60.0703 4.35938 60.0703 4.50781Q60.0703 4.65625 59.9688 4.74609Q59.8672 4.83594 59.6328 4.83594L58.0703 4.83594ZM71.6719 4.83594L71.6719 12.6641L76.0313 12.6641L76.0313 10.0547Q76.0313 9.82031 76.125 9.71875Q76.2188 9.61719 76.3672 9.61719Q76.5078 9.61719 76.6016 9.71484Q76.6953 9.8125 76.6953 10.0547L76.6953 13.3203L69.4453 13.3203Q69.2109 13.3203 69.1094 13.2266Q69.0078 13.1328 69.0078 12.9922Q69.0078 12.8438 69.1094 12.7539Q69.2109 12.6641 69.4453 12.6641L71.0078 12.6641L71.0078 4.83594L69.4453 4.83594Q69.2109 4.83594 69.1094 4.74609Q69.0078 4.65625 69.0078 4.50781Q69.0078 4.35938 69.1094 4.26953Q69.2109 4.17969 69.4453 4.17969L73.2344 4.17969Q73.4688 4.17969 73.5703 4.26953Q73.6719 4.35938 73.6719 4.50781Q73.6719 4.65625 73.5703 4.74609Q73.4688 4.83594 73.2344 4.83594L71.6719 4.83594ZM86.7422 4.83594L86.7422 12.6641L88.9922 12.6641Q89.2266 12.6641 89.3281 12.7539Q89.4297 12.8438 89.4297 12.9922Q89.4297 13.1328 89.3281 13.2266Q89.2266 13.3203 88.9922 13.3203L83.8359 13.3203Q83.6016 13.3203 83.5 13.2266Q83.3984 13.1328 83.3984 12.9922Q83.3984 12.8438 83.5 12.7539Q83.6016 12.6641 83.8359 12.6641L86.0859 12.6641L86.0859 4.83594L83.8359 4.83594Q83.6016 4.83594 83.5 4.74609Q83.3984 4.65625 83.3984 4.50781Q83.3984 4.35938 83.5 4.26953Q83.6016 4.17969 83.8359 4.17969L88.9922 4.17969Q89.2266 4.17969 89.3281 4.26953Q89.4297 4.35938 89.4297 4.50781Q89.4297 4.65625 89.3281 4.74609Q89.2266 4.83594 88.9922 4.83594L86.7422 4.83594ZM103.578 9.92969L103.578 12.7422Q102.828 13.1563 102.082 13.3672Q101.336 13.5781 100.594 13.5781Q99.5391 13.5781 98.7383 13.2656Q97.9375 12.9531 97.3828 12.3906Q96.8281 11.8281 96.5195 11.1328Q96.2109 10.4375 96.2109 9.36719L96.2109 8.16406Q96.2109 7.08594 96.7461 6.06641Q97.2813 5.04688 98.2109 4.50781Q99.1406 3.96875 100.234 3.96875Q101.82 3.96875 102.914 4.83594Q102.914 4.45313 102.941 4.375Q102.969 4.29688 103.055 4.23828Q103.141 4.17969 103.25 4.17969Q103.391 4.17969 103.484 4.28125Q103.578 4.38281 103.578 4.61719L103.578 6.10156Q103.578 6.34375 103.484 6.44141Q103.391 6.53906 103.25 6.53906Q103.117 6.53906 103.027 6.44922Q102.938 6.35938 102.93 6.13281Q102.883 5.46875 102.066 5.04688Q101.25 4.625 100.289 4.625Q99.3828 4.625 98.6523 5.01953Q97.9219 5.41406 97.2891 6.52344Q96.8672 7.25 96.8672 8.17188L96.8672 9.36719Q96.8672 11 97.8672 11.9609Q98.8672 12.9219 100.625 12.9219Q101.219 12.9219 101.727 12.7969Q102.234 12.6719 102.914 12.3594L102.914 9.92969L100.656 9.92969Q100.422 9.92969 100.32 9.83984Q100.219 9.75 100.219 9.60156Q100.219 9.45313 100.32 9.35938Q100.422 9.26563 100.656 9.26563L103.813 9.27344Q104.047 9.27344 104.148 9.36328Q104.25 9.45313 104.25 9.60156Q104.25 9.70313 104.188 9.78906Q104.125 9.875 104.047 9.90234Q103.969 9.92969 103.578 9.92969ZM111.477 8.90625L111.477 12.6641L116.523 12.6641L116.523 10.7266Q116.523 10.4922 116.613 10.3906Q116.703 10.2891 116.852 10.2891Q117 10.2891 117.09 10.3906Q117.18 10.4922 117.18 10.7266L117.18 13.3203L109.938 13.3203Q109.703 13.3203 109.602 13.2266Q109.5 13.1328 109.5 12.9922Q109.5 12.8438 109.602 12.7539Q109.703 12.6641 109.938 12.6641L110.82 12.6641L110.82 4.83594L109.938 4.83594Q109.703 4.83594 109.602 4.74609Q109.5 4.65625 109.5 4.50781Q109.5 4.35938 109.602 4.26953Q109.703 4.17969 109.938 4.17969L116.836 4.17969L116.836 6.4375Q116.836 6.67188 116.746 6.77344Q116.656 6.875 116.508 6.875Q116.359 6.875 116.27 6.77344Q116.18 6.67188 116.18 6.4375L116.18 4.83594L111.477 4.83594L111.477 8.25L113.828 8.25L113.828 7.50781Q113.828 7.27344 113.922 7.17188Q114.016 7.07031 114.164 7.07031Q114.305 7.07031 114.398 7.17188Q114.492 7.27344 114.492 7.50781L114.492 9.64844Q114.492 9.88281 114.398 9.98438Q114.305 10.0859 114.164 10.0859Q114.016 10.0859 113.922 9.98438Q113.828 9.88281 113.828 9.64844L113.828 8.90625L111.477 8.90625ZM130.43 13.3203L129.586 13.3203L124.75 5.14063L124.75 12.6641L125.961 12.6641Q126.203 12.6641 126.305 12.7539Q126.406 12.8438 126.406 12.9922Q126.406 13.1328 126.305 13.2266Q126.203 13.3203 125.961 13.3203L123.547 13.3203Q123.305 13.3203 123.203 13.2266Q123.102 13.1328 123.102 12.9922Q123.102 12.8438 123.203 12.7539Q123.305 12.6641 123.547 12.6641L124.094 12.6641L124.094 4.83594L123.211 4.83594Q122.977 4.83594 122.875 4.74609Q122.773 4.65625 122.773 4.50781Q122.773 4.35938 122.875 4.26953Q122.977 4.17969 123.211 4.17969L124.93 4.17969L129.773 12.375L129.773 4.83594L128.563 4.83594Q128.328 4.83594 128.227 4.74609Q128.125 4.65625 128.125 4.50781Q128.125 4.35938 128.223 4.26953Q128.32 4.17969 128.563 4.17969L130.984 4.17969Q131.219 4.17969 131.32 4.26953Q131.422 4.35938 131.422 4.50781Q131.422 4.65625 131.32 4.74609Q131.219 4.83594 130.984 4.83594L130.43 4.83594L130.43 13.3203ZM141.141 4.83594L141.141 12.6641L142.844 12.6641Q143.078 12.6641 143.18 12.7539Q143.281 12.8438 143.281 12.9922Q143.281 13.1328 143.18 13.2266Q143.078 13.3203 142.844 13.3203L138.773 13.3203Q138.539 13.3203 138.438 13.2266Q138.336 13.1328 138.336 12.9922Q138.336 12.8438 138.438 12.7539Q138.539 12.6641 138.773 12.6641L140.477 12.6641L140.477 4.83594L137.789 4.83594L137.789 7.10938Q137.789 7.35156 137.699 7.45313Q137.609 7.55469 137.461 7.55469Q137.32 7.55469 137.227 7.45313Q137.133 7.35156 137.133 7.10938L137.133 4.17969L144.484 4.17969L144.484 7.10938Q144.484 7.35156 144.395 7.45313Q144.305 7.55469 144.156 7.55469Q144.008 7.55469 143.918 7.45313Q143.828 7.35156 143.828 7.10938L143.828 4.83594L141.141 4.83594ZM168.352 4.83594L168.352 12.6641L170.602 12.6641Q170.836 12.6641 170.938 12.7539Q171.039 12.8438 171.039 12.9922Q171.039 13.1328 170.938 13.2266Q170.836 13.3203 170.602 13.3203L165.445 13.3203Q165.211 13.3203 165.109 13.2266Q165.008 13.1328 165.008 12.9922Q165.008 12.8438 165.109 12.7539Q165.211 12.6641 165.445 12.6641L167.695 12.6641L167.695 4.83594L165.445 4.83594Q165.211 4.83594 165.109 4.74609Q165.008 4.65625 165.008 4.50781Q165.008 4.35938 165.109 4.26953Q165.211 4.17969 165.445 4.17969L170.602 4.17969Q170.836 4.17969 170.938 4.26953Q171.039 4.35938 171.039 4.50781Q171.039 4.65625 170.938 4.74609Q170.836 4.83594 170.602 4.83594L168.352 4.83594ZM179.047 12.6641L179.047 4.83594L178.492 4.83594Q178.258 4.83594 178.156 4.74609Q178.055 4.65625 178.055 4.50781Q178.055 4.35938 178.156 4.26953Q178.258 4.17969 178.492 4.17969L182.023 4.17969Q182.852 4.17969 183.535 4.52344Q184.219 4.86719 184.578 5.30469Q185.195 6.04688 185.516 6.875Q185.742 7.47656 185.742 8.29688L185.742 9.20313Q185.742 10.2109 185.297 11.1563Q184.852 12.1016 183.813 12.8047Q183.039 13.3203 182.023 13.3203L178.492 13.3203Q178.258 13.3203 178.156 13.2266Q178.055 13.1328 178.055 12.9922Q178.055 12.8438 178.156 12.7539Q178.258 12.6641 178.492 12.6641L179.047 12.6641ZM179.703 12.6641L182.086 12.6641Q182.914 12.6641 183.637 12.125Q184.359 11.5859 184.723 10.832Q185.086 10.0781 185.086 9.34375L185.086 8.15625Q185.086 7.54688 184.891 7.07031Q184.609 6.375 184.094 5.75Q183.813 5.40625 183.266 5.12109Q182.719 4.83594 182.086 4.83594L179.703 4.83594L179.703 12.6641ZM193.086 8.90625L193.086 12.6641L198.133 12.6641L198.133 10.7266Q198.133 10.4922 198.223 10.3906Q198.313 10.2891 198.461 10.2891Q198.609 10.2891 198.699 10.3906Q198.789 10.4922 198.789 10.7266L198.789 13.3203L191.547 13.3203Q191.313 13.3203 191.211 13.2266Q191.109 13.1328 191.109 12.9922Q191.109 12.8438 191.211 12.7539Q191.313 12.6641 191.547 12.6641L192.43 12.6641L192.43 4.83594L191.547 4.83594Q191.313 4.83594 191.211 4.74609Q191.109 4.65625 191.109 4.50781Q191.109 4.35938 191.211 4.26953Q191.313 4.17969 191.547 4.17969L198.445 4.17969L198.445 6.4375Q198.445 6.67188 198.355 6.77344Q198.266 6.875 198.117 6.875Q197.969 6.875 197.879 6.77344Q197.789 6.67188 197.789 6.4375L197.789 4.83594L193.086 4.83594L193.086 8.25L195.438 8.25L195.438 7.50781Q195.438 7.27344 195.531 7.17188Q195.625 7.07031 195.773 7.07031Q195.914 7.07031 196.008 7.17188Q196.102 7.27344 196.102 7.50781L196.102 9.64844Q196.102 9.88281 196.008 9.98438Q195.914 10.0859 195.773 10.0859Q195.625 10.0859 195.531 9.98438Q195.438 9.88281 195.438 9.64844L195.438 8.90625L193.086 8.90625Z" transform="translate(159 88)" fill="#EEEEEE" clip-path="url(#clip_path_1)" />
    <path id="Path" d="M0 1.75819L0 0.879097C0 0.636345 0.0978546 0.429138 0.293579 0.257484C0.489304 0.0858307 0.725571 0 1.00237 0L27.0637 0C27.3405 0 27.5768 0.0858307 27.7725 0.257484C27.9682 0.429138 28.0661 0.636345 28.0661 0.879097L28.0661 2.6373C28.0661 2.88005 27.9682 3.08726 27.7725 3.25891C27.5768 3.43056 27.3405 3.5164 27.0637 3.5164L1.00237 3.5164C0.725571 3.5164 0.489304 3.43056 0.293579 3.25891C0.0978546 3.08726 0 2.88005 0 2.6373L0 1.75819Z" fill="#FFFFFF" fill-rule="evenodd" transform="translate(161 108)" />
  </g>
</svg>