<svg xmlns="http://www.w3.org/2000/svg" viewBox="0 0 512 512" width="512" height="512">
  <!-- Fond carre arrondi (bleu ciel gai pour faire ressortir la mascotte jaune) -->
  <rect x="0" y="0" width="512" height="512" rx="112" ry="112" fill="#7FC4F5"/>
  <rect x="14" y="14" width="484" height="484" rx="100" ry="100" fill="none" stroke="#4A3728" stroke-width="14"/>
  <!-- petits nuages -->
  <ellipse cx="120" cy="96" rx="46" ry="22" fill="#FFFFFF" opacity="0.85"/>
  <ellipse cx="396" cy="120" rx="38" ry="18" fill="#FFFFFF" opacity="0.8"/>
  <!-- Mascotte Nana centree -->
  <g transform="translate(86,70) scale(1.55)">
    <ellipse cx="82" cy="197" rx="22" ry="12" fill="#FF922B" stroke="#4A3728" stroke-width="6"/>
    <ellipse cx="138" cy="197" rx="22" ry="12" fill="#FF922B" stroke="#4A3728" stroke-width="6"/>
    <path d="M34 110 q-16 6 -20 22" fill="none" stroke="#4A3728" stroke-width="10" stroke-linecap="round"/>
    <path d="M186 110 q16 6 20 22" fill="none" stroke="#4A3728" stroke-width="10" stroke-linecap="round"/>
    <circle cx="110" cy="105" r="78" fill="#FFC93C" stroke="#4A3728" stroke-width="8"/>
    <circle cx="66" cy="120" r="15" fill="#FF8FA3"/>
    <circle cx="154" cy="120" r="15" fill="#FF8FA3"/>
    <circle cx="86" cy="92" r="18" fill="#FFFFFF" stroke="#4A3728" stroke-width="5"/>
    <circle cx="134" cy="92" r="18" fill="#FFFFFF" stroke="#4A3728" stroke-width="5"/>
    <circle cx="90" cy="95" r="8" fill="#4A3728"/>
    <circle cx="138" cy="95" r="8" fill="#4A3728"/>
    <circle cx="93" cy="91" r="3" fill="#FFFFFF"/>
    <circle cx="141" cy="91" r="3" fill="#FFFFFF"/>
    <path d="M86 130 Q110 154 134 130" fill="none" stroke="#4A3728" stroke-width="6" stroke-linecap="round"/>
    <path d="M110 27 q-8 -20 12 -23 q-5 15 7 19 z" fill="#FF922B" stroke="#4A3728" stroke-width="5" stroke-linejoin="round"/>
  </g>
</svg>
