<?xml version="1.0" encoding="utf-8"?>
<svg width="1920" height="562.95" viewBox="0 0 1920 562.95" fill="none" xmlns="http://www.w3.org/2000/svg">
  <g>
    <g transform="translate(0 5.512)">
      <path d="M10.7884 0C3.76512 24.1744 0 49.7351 0 76.1752C0 226.693 122.019 348.711 272.536 348.711C423.054 348.711 545.072 226.693 545.072 76.1752C545.072 49.7351 541.307 24.1744 534.284 0L10.7884 0Z" fill="#FFFFFF" fill-rule="evenodd" transform="translate(0 196.36)" />
      <path d="M506.374 171.483L-1.90735e-06 171.483C40.1422 70.9967 138.374 0 253.187 0C368.001 0 466.232 70.9967 506.374 171.483Z" fill="#FFFFFF" fill-rule="evenodd" transform="translate(19.349 0)" />
    </g>
    <path d="M207.617 208.842C207.617 191.285 204.351 174.749 197.818 159.234C191.286 143.719 181.997 130.143 169.952 118.507C157.908 106.87 143.719 97.6838 127.388 90.9469C111.056 84.2101 93.091 80.8417 73.493 80.8417L73.493 337.454C92.2745 337.862 109.831 334.8 126.163 328.267C142.495 321.735 156.683 312.65 168.727 301.014C180.772 289.378 190.265 275.7 197.206 259.98C204.147 244.261 207.617 227.215 207.617 208.842L207.617 208.842ZM0 461.78L0 7.34905L75.3301 7.34905C103.911 7.34909 130.756 12.6569 155.866 23.2725C180.976 33.8881 202.82 48.2805 221.397 66.4495C239.974 84.6186 254.571 105.952 265.187 130.45C275.802 154.947 281.11 181.078 281.11 208.842C281.11 239.464 274.679 268.044 261.818 294.583C248.957 321.123 230.89 344.191 207.617 363.789L249.876 461.78L159.234 461.78L141.474 400.536C119.834 407.477 97.1738 410.947 73.4929 410.947L73.4929 461.78L0 461.78ZM415.235 43.4833C415.235 56.1404 410.947 66.6539 402.373 75.0239C393.799 83.3939 383.592 87.5789 371.751 87.5789C359.502 87.5789 349.091 83.3939 340.517 75.0239C331.943 66.6539 327.656 56.1404 327.656 43.4833C327.656 31.6428 331.943 21.4355 340.517 12.8613C349.091 4.28716 359.502 5.84068e-05 371.751 0C383.592 5.84068e-05 393.799 4.28716 402.373 12.8613C410.947 21.4355 415.235 31.6428 415.235 43.4833L415.235 43.4833ZM335.617 461.78L335.617 135.349L409.11 135.349L409.11 461.78L335.617 461.78ZM482.603 461.78L482.603 6.73686L556.096 6.73686L556.096 197.818L667.56 197.818L667.56 6.73686L741.053 6.73686L741.053 461.78L667.56 461.78L667.56 271.311L556.096 271.311L556.096 461.78L482.603 461.78ZM881.914 271.923L881.914 388.287L1011.14 388.287L1011.14 461.78L808.421 461.78L808.421 6.73686L1011.14 6.73686L1011.14 80.2297L881.914 80.2297L881.914 198.431L1011.14 198.431L1011.14 271.923L881.914 271.923ZM1056.46 461.78L1056.46 7.34905L1136.08 7.34905C1163.84 7.34909 1189.97 12.6569 1214.47 23.2725C1238.97 33.8881 1260.4 48.2805 1278.78 66.4495C1297.15 84.6186 1311.64 105.952 1322.26 130.45C1332.87 154.947 1338.18 181.078 1338.18 208.842L1338.18 461.78L1264.69 461.78L1264.69 208.842C1264.69 191.285 1261.32 174.647 1254.58 158.928C1247.85 143.209 1238.46 129.531 1226.41 117.894C1214.37 106.258 1200.08 97.0715 1183.54 90.3347C1167 83.5978 1149.14 80.4336 1129.95 80.8419L1129.95 461.78L1056.46 461.78Z" fill="#FFFFFF" transform="translate(581.818 0)" />
    <path d="M20.9694 39.7113C21.6292 40.5361 22.4642 41.6185 23.4745 42.9588C24.4849 44.299 25.5261 45.7836 26.5983 47.4124C27.6705 49.0413 28.7324 50.7424 29.7839 52.5156C30.8354 54.2888 31.7324 56.0002 32.4747 57.6497L25.9178 57.6497C25.0931 56.0826 24.1962 54.495 23.2271 52.8867C22.258 51.2784 21.2786 49.7424 20.2889 48.2784C19.2992 46.8145 18.3198 45.4434 17.3508 44.165C16.3817 42.8866 15.5054 41.7732 14.7219 40.8247C14.1857 40.866 13.6393 40.8866 13.0826 40.8866C12.5259 40.8866 11.9589 40.8866 11.3816 40.8866L6.00006 40.8866L6.00006 57.6497L0 57.6497L0 15.4017C1.69073 14.9893 3.57739 14.711 5.65985 14.5667C7.74237 14.4223 9.6496 14.3502 11.3816 14.3502C17.4023 14.3502 21.99 15.4842 25.1447 17.7523C28.2993 20.0203 29.8766 23.4019 29.8766 27.8967C29.8766 30.7421 29.1241 33.1752 27.6189 35.1958C26.1138 37.2164 23.8972 38.7216 20.9694 39.7113L20.9694 39.7113ZM11.8764 19.6081C9.31964 19.6081 7.36084 19.67 6 19.7937L6 35.9382L10.2681 35.9382C12.33 35.9382 14.1857 35.8351 15.8352 35.629C17.4847 35.4227 18.8765 35.031 20.0105 34.4537C21.1445 33.8763 22.0208 33.0619 22.6394 32.0103C23.2579 30.9588 23.5673 29.567 23.5673 27.835C23.5673 26.2267 23.2579 24.8865 22.6394 23.8143C22.0208 22.7422 21.1858 21.8968 20.1342 21.2783C19.0826 20.6597 17.8455 20.2267 16.4229 19.9792C15.0001 19.7318 13.4846 19.6081 11.8764 19.6081L11.8764 19.6081ZM39.9489 57.6508L39.9489 14.7842L66.1143 14.7842L66.1143 19.9183L45.949 19.9183L45.949 32.6607L63.8874 32.6607L63.8874 37.6711L45.949 37.6711L45.949 52.5167L67.6606 52.5167L67.6606 57.6508L39.9489 57.6508ZM53.0005 0.432678L61.4131 9.27814L59.0007 11.9998L53.0005 6.55646L47.0005 11.9998L44.5881 9.27814L53.0005 0.432678ZM110.95 14.7842C109.383 19.3204 107.888 23.5163 106.465 27.372C105.042 31.2277 103.651 34.8876 102.29 38.3515C100.929 41.8155 99.5782 45.1248 98.238 48.2795C96.8978 51.4341 95.5267 54.5579 94.1246 57.6508L88.4956 57.6508C87.0936 54.5579 85.7224 51.4341 84.3822 48.2795C83.042 45.1248 81.6812 41.8155 80.2997 38.3515C78.9182 34.8876 77.5058 31.2277 76.0625 27.372C74.6191 23.5163 73.1346 19.3204 71.6088 14.7842L78.2275 14.7842C80.4543 21.2997 82.6399 27.5679 84.7842 33.5886C86.9286 39.6093 89.1348 45.2589 91.4029 50.5372C93.671 45.3 95.8772 39.6608 98.0215 33.6195C100.166 27.5782 102.331 21.2997 104.516 14.7842L110.95 14.7842ZM115.146 36.1859C115.146 32.5157 115.692 29.2786 116.785 26.4744C117.877 23.6703 119.362 21.3301 121.238 19.4537C123.115 17.5775 125.3 16.165 127.795 15.2166C130.29 14.2681 132.94 13.7939 135.744 13.7939C138.507 13.7939 141.115 14.2681 143.569 15.2166C146.022 16.165 148.177 17.5775 150.033 19.4537C151.888 21.3301 153.362 23.6703 154.455 26.4744C155.548 29.2786 156.094 32.5157 156.094 36.1859C156.094 39.8561 155.548 43.0932 154.455 45.8974C153.362 48.7015 151.888 51.0417 150.033 52.9181C148.177 54.7944 146.022 56.2068 143.569 57.1553C141.115 58.1037 138.507 58.5779 135.744 58.5779C132.94 58.5779 130.29 58.1037 127.795 57.1553C125.3 56.2068 123.115 54.7944 121.238 52.9181C119.362 51.0417 117.877 48.7015 116.785 45.8974C115.692 43.0932 115.146 39.8561 115.146 36.1859L115.146 36.1859ZM121.455 36.1861C121.455 38.7841 121.785 41.1449 122.445 43.2686C123.104 45.3924 124.043 47.1965 125.259 48.6811C126.476 50.1656 127.96 51.31 129.713 52.1141C131.465 52.9183 133.434 53.3203 135.62 53.3203C137.806 53.3203 139.764 52.9183 141.496 52.1141C143.228 51.31 144.703 50.1656 145.919 48.6811C147.136 47.1965 148.074 45.3924 148.734 43.2686C149.393 41.1449 149.723 38.7841 149.723 36.1861C149.723 33.5881 149.393 31.2272 148.734 29.1035C148.074 26.9798 147.136 25.1757 145.919 23.6911C144.703 22.2065 143.228 21.0622 141.496 20.2581C139.764 19.4539 137.806 19.0518 135.62 19.0518C133.434 19.0518 131.465 19.4539 129.713 20.2581C127.96 21.0622 126.476 22.2065 125.259 23.6911C124.043 25.1757 123.104 26.9798 122.445 29.1035C121.785 31.2272 121.455 33.5881 121.455 36.1861L121.455 36.1861ZM195.425 57.6508C194.518 56.1249 193.476 54.4136 192.301 52.5167C191.126 50.6198 189.858 48.6506 188.497 46.6094C187.136 44.5681 185.724 42.4959 184.26 40.3928C182.796 38.2897 181.342 36.2587 179.899 34.2999C178.456 32.3411 177.053 30.4958 175.693 28.7638C174.332 27.0318 173.074 25.506 171.919 24.1864L171.919 57.6508L166.043 57.6508L166.043 14.7842L170.806 14.7842C172.744 16.8461 174.816 19.2482 177.023 21.9905C179.229 24.7328 181.414 27.5576 183.579 30.4648C185.744 33.3721 187.786 36.2278 189.703 39.0319C191.621 41.8361 193.239 44.331 194.559 46.5166L194.559 14.7842L200.435 14.7842L200.435 57.6508L195.425 57.6508ZM222.075 53.382C228.343 53.382 231.477 51.2377 231.477 46.9489C231.477 45.6293 231.198 44.5056 230.642 43.5778C230.085 42.6499 229.332 41.8458 228.384 41.1653C227.435 40.4849 226.353 39.8973 225.136 39.4025C223.92 38.9076 222.631 38.4128 221.27 37.9179C219.703 37.3818 218.219 36.7736 216.817 36.0931C215.415 35.4127 214.198 34.6086 213.167 33.6807C212.136 32.7529 211.322 31.6498 210.724 30.3714C210.126 29.0931 209.827 27.5466 209.827 25.7322C209.827 21.9796 211.105 19.0517 213.662 16.9485C216.219 14.8455 219.745 13.7939 224.24 13.7939C226.838 13.7939 229.198 14.0722 231.322 14.6289C233.446 15.1857 235.003 15.7939 235.992 16.4537L234.075 21.3404C233.209 20.8043 231.92 20.2785 230.209 19.7631C228.497 19.2476 226.508 18.9898 224.24 18.9898C223.085 18.9898 222.013 19.1135 221.023 19.361C220.033 19.6084 219.167 19.9796 218.425 20.4744C217.683 20.9692 217.095 21.5981 216.662 22.361C216.229 23.1239 216.013 24.0208 216.013 25.0518C216.013 26.2064 216.239 27.1755 216.693 27.959C217.147 28.7426 217.786 29.4332 218.611 30.0312C219.435 30.6292 220.394 31.1755 221.487 31.6704C222.58 32.1652 223.786 32.6601 225.106 33.155C226.961 33.8972 228.662 34.6395 230.209 35.3818C231.755 36.1241 233.095 37.0107 234.229 38.0416C235.363 39.0726 236.24 40.2994 236.858 41.722C237.477 43.1448 237.786 44.8665 237.786 46.8871C237.786 50.6397 236.415 53.5263 233.673 55.547C230.93 57.5676 227.064 58.5779 222.075 58.5779C220.384 58.5779 218.827 58.4645 217.404 58.2377C215.982 58.0109 214.714 57.7429 213.6 57.4336C212.487 57.1243 211.528 56.7944 210.724 56.4439C209.92 56.0934 209.291 55.7944 208.837 55.547L210.631 50.5984C211.58 51.1346 213.023 51.7325 214.961 52.3923C216.899 53.0521 219.27 53.382 222.075 53.382L222.075 53.382ZM261.394 57.6508L261.394 14.7842L287.56 14.7842L287.56 19.9183L267.394 19.9183L267.394 32.6607L285.333 32.6607L285.333 37.6711L267.394 37.6711L267.394 52.5167L289.106 52.5167L289.106 57.6508L261.394 57.6508ZM327.138 57.6508C326.23 56.1249 325.189 54.4136 324.014 52.5167C322.839 50.6198 321.571 48.6506 320.21 46.6094C318.849 44.5681 317.437 42.4959 315.973 40.3928C314.509 38.2897 313.055 36.2587 311.612 34.2999C310.168 32.3411 308.766 30.4958 307.406 28.7638C306.045 27.0318 304.787 25.506 303.632 24.1864L303.632 57.6508L297.756 57.6508L297.756 14.7842L302.519 14.7842C304.457 16.8461 306.529 19.2482 308.735 21.9905C310.942 24.7328 313.127 27.5576 315.292 30.4648C317.457 33.3721 319.498 36.2278 321.416 39.0319C323.334 41.8361 324.952 44.331 326.272 46.5166L326.272 14.7842L332.148 14.7842L332.148 57.6508L327.138 57.6508ZM353.787 53.382C360.056 53.382 363.19 51.2377 363.19 46.9489C363.19 45.6293 362.911 44.5056 362.355 43.5778C361.798 42.6499 361.045 41.8458 360.097 41.1653C359.148 40.4849 358.066 39.8973 356.849 39.4025C355.633 38.9076 354.344 38.4128 352.983 37.9179C351.416 37.3818 349.932 36.7736 348.53 36.0931C347.128 35.4127 345.911 34.6086 344.88 33.6807C343.849 32.7529 343.035 31.6498 342.437 30.3714C341.839 29.0931 341.54 27.5466 341.54 25.7322C341.54 21.9796 342.818 19.0517 345.375 16.9485C347.932 14.8455 351.458 13.7939 355.953 13.7939C358.55 13.7939 360.911 14.0722 363.035 14.6289C365.159 15.1857 366.716 15.7939 367.705 16.4537L365.788 21.3404C364.922 20.8043 363.633 20.2785 361.922 19.7631C360.21 19.2476 358.221 18.9898 355.953 18.9898C354.798 18.9898 353.726 19.1135 352.736 19.361C351.746 19.6084 350.88 19.9796 350.138 20.4744C349.396 20.9692 348.808 21.5981 348.375 22.361C347.942 23.1239 347.726 24.0208 347.726 25.0518C347.726 26.2064 347.952 27.1755 348.406 27.959C348.86 28.7426 349.499 29.4332 350.323 30.0312C351.148 30.6292 352.107 31.1755 353.2 31.6704C354.293 32.1652 355.499 32.6601 356.818 33.155C358.674 33.8972 360.375 34.6395 361.922 35.3818C363.468 36.1241 364.808 37.0107 365.942 38.0416C367.076 39.0726 367.953 40.2994 368.571 41.722C369.19 43.1448 369.499 44.8665 369.499 46.8871C369.499 50.6397 368.128 53.5263 365.386 55.547C362.643 57.5676 358.777 58.5779 353.787 58.5779C352.097 58.5779 350.54 58.4645 349.117 58.2377C347.695 58.0109 346.427 57.7429 345.313 57.4336C344.2 57.1243 343.241 56.7944 342.437 56.4439C341.633 56.0934 341.004 55.7944 340.55 55.547L342.344 50.5984C343.292 51.1346 344.736 51.7325 346.674 52.3923C348.612 53.0521 350.983 53.382 353.787 53.382L353.787 53.382ZM377.777 57.6508L377.777 14.7842L403.943 14.7842L403.943 19.9183L383.777 19.9183L383.777 32.6607L401.716 32.6607L401.716 37.6711L383.777 37.6711L383.777 52.5167L405.489 52.5167L405.489 57.6508L377.777 57.6508ZM433.376 51.7125C432.964 50.7228 432.417 49.4651 431.737 47.9393C431.057 46.4135 430.325 44.764 429.541 42.9908C428.758 41.2175 427.922 39.3928 427.036 37.5165C426.149 35.6401 425.314 33.8669 424.531 32.1968C423.747 30.5267 423.015 29.0318 422.335 27.7122C421.654 26.3926 421.108 25.3823 420.696 24.6813C420.242 29.5473 419.871 34.8154 419.582 40.4856C419.294 46.1558 419.046 51.8774 418.84 57.6508L412.964 57.6508C413.129 53.9393 413.314 50.197 413.52 46.4238C413.726 42.6506 413.964 38.9391 414.232 35.2896C414.5 31.6401 414.788 28.0834 415.098 24.6194C415.407 21.1555 415.747 17.877 416.118 14.7842L421.376 14.7842C422.49 16.5987 423.685 18.743 424.964 21.2173C426.242 23.6915 427.52 26.2792 428.799 28.9803C430.077 31.6813 431.314 34.3824 432.51 37.0835C433.706 39.7845 434.799 42.2485 435.789 44.4753C436.778 42.2485 437.871 39.7845 439.067 37.0835C440.263 34.3824 441.5 31.6813 442.778 28.9803C444.057 26.2792 445.335 23.6915 446.613 21.2173C447.892 18.743 449.088 16.5987 450.201 14.7842L455.459 14.7842C456.861 28.5988 457.913 42.8877 458.614 57.6508L452.737 57.6508C452.531 51.8774 452.284 46.1558 451.995 40.4856C451.706 34.8154 451.335 29.5473 450.882 24.6813C450.469 25.3823 449.923 26.3926 449.242 27.7122C448.562 29.0318 447.83 30.5267 447.047 32.1968C446.263 33.8669 445.428 35.6401 444.541 37.5165C443.655 39.3928 442.82 41.2175 442.036 42.9908C441.253 44.764 440.521 46.4135 439.84 47.9393C439.16 49.4651 438.613 50.7228 438.201 51.7125L433.376 51.7125ZM480.624 58.0208C479.758 58.0208 478.82 58.0002 477.809 57.959C476.799 57.9177 475.789 57.8559 474.778 57.7734C473.768 57.6909 472.768 57.5878 471.778 57.4641C470.789 57.3404 469.881 57.1755 469.057 56.9692L469.057 15.4017C469.881 15.1956 470.789 15.0306 471.778 14.9069C472.768 14.7832 473.768 14.6801 474.778 14.5976C475.789 14.5151 476.789 14.4533 477.778 14.412C478.768 14.3708 479.696 14.3502 480.562 14.3502C483.036 14.3502 485.356 14.5357 487.521 14.9069C489.686 15.278 491.562 15.9069 493.15 16.7935C494.737 17.6801 495.985 18.8451 496.892 20.2884C497.799 21.7317 498.253 23.5049 498.253 25.608C498.253 27.9586 497.696 29.8865 496.583 31.3916C495.469 32.8968 493.985 34.0205 492.129 34.7628C494.645 35.5051 496.645 36.6804 498.129 38.2886C499.614 39.8969 500.356 42.165 500.356 45.0928C500.356 49.3815 498.779 52.6084 495.624 54.7734C492.469 56.9383 487.469 58.0208 480.624 58.0208L480.624 58.0208ZM474.995 37.6703L474.995 52.7633C475.449 52.8046 475.985 52.8458 476.604 52.887C477.14 52.9283 477.769 52.9592 478.49 52.9798C479.212 53.0004 480.047 53.0107 480.995 53.0107C482.769 53.0107 484.449 52.8973 486.037 52.6705C487.624 52.4437 489.016 52.0416 490.212 51.4643C491.408 50.887 492.367 50.0829 493.088 49.0519C493.81 48.021 494.171 46.722 494.171 45.155C494.171 43.7529 493.903 42.5673 493.367 41.5982C492.831 40.6292 492.057 39.856 491.047 39.2786C490.037 38.7013 488.831 38.2889 487.429 38.0414C486.026 37.7941 484.459 37.6703 482.727 37.6703L474.995 37.6703ZM474.995 32.8456L481.305 32.8456C482.789 32.8456 484.191 32.7425 485.511 32.5363C486.831 32.3301 487.975 31.959 488.944 31.4229C489.913 30.8868 490.676 30.1857 491.233 29.3198C491.789 28.4538 492.068 27.361 492.068 26.0414C492.068 24.8043 491.779 23.763 491.202 22.9176C490.625 22.0723 489.831 21.3918 488.82 20.8763C487.81 20.3609 486.624 19.9794 485.264 19.732C483.903 19.4846 482.459 19.3609 480.934 19.3609C479.408 19.3609 478.212 19.3815 477.346 19.4227C476.48 19.464 475.696 19.5258 474.995 19.6083L474.995 32.8456ZM535.665 52.4548L535.665 57.6508L509.871 57.6508L509.871 14.7842L515.871 14.7842L515.871 52.4548L535.665 52.4548ZM543.015 57.6508L543.015 14.7842L569.18 14.7842L569.18 19.9183L549.015 19.9183L549.015 32.6607L566.953 32.6607L566.953 37.6711L549.015 37.6711L549.015 52.5167L570.726 52.5167L570.726 57.6508L543.015 57.6508ZM585.75 50.5989C585.791 50.9288 585.812 51.2484 585.812 51.5577C585.812 51.8669 585.812 52.1865 585.812 52.5164C585.812 55.1144 585.43 57.6815 584.667 60.2175C583.904 62.7537 582.863 65.1764 581.544 67.4857L577.09 66.063C578.121 63.9599 578.801 61.8258 579.131 59.6608C579.461 57.4958 579.626 55.4649 579.626 53.568C579.626 53.0319 579.616 52.5164 579.595 52.0215C579.574 51.5267 579.544 51.0525 579.502 50.5989L585.75 50.5989ZM632.614 39.7113C633.274 40.5361 634.109 41.6185 635.12 42.9588C636.13 44.299 637.171 45.7836 638.243 47.4124C639.316 49.0413 640.377 50.7424 641.429 52.5156C642.481 54.2888 643.377 56.0002 644.12 57.6497L637.563 57.6497C636.738 56.0826 635.841 54.495 634.872 52.8867C633.903 51.2784 632.924 49.7424 631.934 48.2784C630.944 46.8145 629.965 45.4434 628.996 44.165C628.027 42.8866 627.151 41.7732 626.367 40.8247C625.831 40.866 625.284 40.8866 624.728 40.8866C624.171 40.8866 623.604 40.8866 623.027 40.8866L617.645 40.8866L617.645 57.6497L611.645 57.6497L611.645 15.4017C613.336 14.9893 615.222 14.711 617.305 14.5667C619.387 14.4223 621.295 14.3502 623.027 14.3502C629.047 14.3502 633.635 15.4842 636.79 17.7523C639.944 20.0203 641.522 23.4019 641.522 27.8967C641.522 30.7421 640.769 33.1752 639.264 35.1958C637.759 37.2164 635.542 38.7216 632.614 39.7113L632.614 39.7113ZM623.523 19.6081C620.966 19.6081 619.007 19.67 617.646 19.7937L617.646 35.9382L621.914 35.9382C623.976 35.9382 625.832 35.8351 627.482 35.629C629.131 35.4227 630.523 35.031 631.657 34.4537C632.791 33.8763 633.667 33.0619 634.286 32.0103C634.904 30.9588 635.214 29.567 635.214 27.835C635.214 26.2267 634.904 24.8865 634.286 23.8143C633.667 22.7422 632.832 21.8968 631.781 21.2783C630.729 20.6597 629.492 20.2267 628.069 19.9792C626.646 19.7318 625.131 19.6081 623.523 19.6081L623.523 19.6081ZM651.593 57.6508L651.593 14.7842L677.758 14.7842L677.758 19.9183L657.593 19.9183L657.593 32.6607L675.532 32.6607L675.532 37.6711L657.593 37.6711L657.593 52.5167L679.305 52.5167L679.305 57.6508L651.593 57.6508ZM673.553 3.64954L664.831 12.1239L661.924 9.52588L669.841 0L673.553 3.64954ZM687.954 14.7842L694.078 14.7842L694.078 57.6508L687.954 57.6508L687.954 14.7842ZM735.017 57.6508C734.11 56.1249 733.068 54.4136 731.893 52.5167C730.718 50.6198 729.45 48.6506 728.089 46.6094C726.728 44.5681 725.316 42.4959 723.852 40.3928C722.388 38.2897 720.934 36.2587 719.491 34.2999C718.048 32.3411 716.646 30.4958 715.285 28.7638C713.924 27.0318 712.666 25.506 711.511 24.1864L711.511 57.6508L705.635 57.6508L705.635 14.7842L710.398 14.7842C712.336 16.8461 714.408 19.2482 716.615 21.9905C718.821 24.7328 721.006 27.5576 723.171 30.4648C725.336 33.3721 727.378 36.2278 729.295 39.0319C731.213 41.8361 732.831 44.331 734.151 46.5166L734.151 14.7842L740.027 14.7842L740.027 57.6508L735.017 57.6508ZM786.35 14.7842C784.783 19.3204 783.288 23.5163 781.865 27.372C780.442 31.2277 779.051 34.8876 777.69 38.3515C776.329 41.8155 774.978 45.1248 773.638 48.2795C772.298 51.4341 770.927 54.5579 769.525 57.6508L763.896 57.6508C762.494 54.5579 761.123 51.4341 759.782 48.2795C758.442 45.1248 757.081 41.8155 755.7 38.3515C754.318 34.8876 752.906 31.2277 751.463 27.372C750.019 23.5163 748.535 19.3204 747.009 14.7842L753.628 14.7842C755.854 21.2997 758.04 27.5679 760.184 33.5886C762.329 39.6093 764.535 45.2589 766.803 50.5372C769.071 45.3 771.277 39.6608 773.422 33.6195C775.566 27.5782 777.731 21.2997 779.917 14.7842L786.35 14.7842ZM793.328 57.6508L793.328 14.7842L819.493 14.7842L819.493 19.9183L799.328 19.9183L799.328 32.6607L817.266 32.6607L817.266 37.6711L799.328 37.6711L799.328 52.5167L821.039 52.5167L821.039 57.6508L793.328 57.6508ZM859.069 57.6508C858.162 56.1249 857.121 54.4136 855.946 52.5167C854.77 50.6198 853.502 48.6506 852.141 46.6094C850.781 44.5681 849.368 42.4959 847.904 40.3928C846.44 38.2897 844.987 36.2587 843.543 34.2999C842.1 32.3411 840.698 30.4958 839.337 28.7638C837.976 27.0318 836.719 25.506 835.564 24.1864L835.564 57.6508L829.688 57.6508L829.688 14.7842L834.45 14.7842C836.389 16.8461 838.461 19.2482 840.667 21.9905C842.873 24.7328 845.059 27.5576 847.224 30.4648C849.389 33.3721 851.43 36.2278 853.348 39.0319C855.265 41.8361 856.884 44.331 858.203 46.5166L858.203 14.7842L864.08 14.7842L864.08 57.6508L859.069 57.6508ZM904.402 14.7842L904.402 19.9802L890.917 19.9802L890.917 57.6508L884.917 57.6508L884.917 19.9802L871.433 19.9802L871.433 14.7842L904.402 14.7842ZM908.349 36.1859C908.349 32.5157 908.895 29.2786 909.988 26.4744C911.081 23.6703 912.565 21.3301 914.442 19.4537C916.318 17.5775 918.504 16.165 920.998 15.2166C923.493 14.2681 926.143 13.7939 928.947 13.7939C931.71 13.7939 934.318 14.2681 936.772 15.2166C939.225 16.165 941.38 17.5775 943.236 19.4537C945.091 21.3301 946.566 23.6703 947.659 26.4744C948.751 29.2786 949.298 32.5157 949.298 36.1859C949.298 39.8561 948.751 43.0932 947.659 45.8974C946.566 48.7015 945.091 51.0417 943.236 52.9181C941.38 54.7944 939.225 56.2068 936.772 57.1553C934.318 58.1037 931.71 58.5779 928.947 58.5779C926.143 58.5779 923.493 58.1037 920.998 57.1553C918.504 56.2068 916.318 54.7944 914.442 52.9181C912.565 51.0417 911.081 48.7015 909.988 45.8974C908.895 43.0932 908.349 39.8561 908.349 36.1859L908.349 36.1859ZM914.658 36.1861C914.658 38.7841 914.988 41.1449 915.648 43.2686C916.308 45.3924 917.246 47.1965 918.462 48.6811C919.679 50.1656 921.163 51.31 922.916 52.1141C924.669 52.9183 926.638 53.3203 928.823 53.3203C931.009 53.3203 932.968 52.9183 934.7 52.1141C936.432 51.31 937.906 50.1656 939.122 48.6811C940.339 47.1965 941.277 45.3924 941.937 43.2686C942.597 41.1449 942.927 38.7841 942.927 36.1861C942.927 33.5881 942.597 31.2272 941.937 29.1035C941.277 26.9798 940.339 25.1757 939.122 23.6911C937.906 22.2065 936.432 21.0622 934.7 20.2581C932.968 19.4539 931.009 19.0518 928.823 19.0518C926.638 19.0518 924.669 19.4539 922.916 20.2581C921.163 21.0622 919.679 22.2065 918.462 23.6911C917.246 25.1757 916.308 26.9798 915.648 29.1035C914.988 31.2272 914.658 33.5881 914.658 36.1861L914.658 36.1861ZM988.627 57.6508C987.72 56.1249 986.679 54.4136 985.504 52.5167C984.328 50.6198 983.06 48.6506 981.699 46.6094C980.339 44.5681 978.926 42.4959 977.462 40.3928C975.998 38.2897 974.545 36.2587 973.101 34.2999C971.658 32.3411 970.256 30.4958 968.895 28.7638C967.534 27.0318 966.277 25.506 965.122 24.1864L965.122 57.6508L959.246 57.6508L959.246 14.7842L964.009 14.7842C965.947 16.8461 968.019 19.2482 970.225 21.9905C972.431 24.7328 974.617 27.5576 976.782 30.4648C978.947 33.3721 980.988 36.2278 982.906 39.0319C984.823 41.8361 986.442 44.331 987.761 46.5166L987.761 14.7842L993.638 14.7842L993.638 57.6508L988.627 57.6508ZM1015.28 53.382C1021.55 53.382 1024.68 51.2377 1024.68 46.9489C1024.68 45.6293 1024.4 44.5056 1023.85 43.5778C1023.29 42.6499 1022.54 41.8458 1021.59 41.1653C1020.64 40.4849 1019.56 39.8973 1018.34 39.4025C1017.13 38.9076 1015.84 38.4128 1014.48 37.9179C1012.91 37.3818 1011.42 36.7736 1010.02 36.0931C1008.62 35.4127 1007.4 34.6086 1006.37 33.6807C1005.34 32.7529 1004.53 31.6498 1003.93 30.3714C1003.33 29.0931 1003.03 27.5466 1003.03 25.7322C1003.03 21.9796 1004.31 19.0517 1006.87 16.9485C1009.42 14.8455 1012.95 13.7939 1017.45 13.7939C1020.04 13.7939 1022.4 14.0722 1024.53 14.6289C1026.65 15.1857 1028.21 15.7939 1029.2 16.4537L1027.28 21.3404C1026.41 20.8043 1025.13 20.2785 1023.41 19.7631C1021.7 19.2476 1019.71 18.9898 1017.45 18.9898C1016.29 18.9898 1015.22 19.1135 1014.23 19.361C1013.24 19.6084 1012.37 19.9796 1011.63 20.4744C1010.89 20.9692 1010.3 21.5981 1009.87 22.361C1009.43 23.1239 1009.22 24.0208 1009.22 25.0518C1009.22 26.2064 1009.44 27.1755 1009.9 27.959C1010.35 28.7426 1010.99 29.4332 1011.82 30.0312C1012.64 30.6292 1013.6 31.1755 1014.69 31.6704C1015.79 32.1652 1016.99 32.6601 1018.31 33.155C1020.17 33.8972 1021.87 34.6395 1023.41 35.3818C1024.96 36.1241 1026.3 37.0107 1027.44 38.0416C1028.57 39.0726 1029.45 40.2994 1030.06 41.722C1030.68 43.1448 1030.99 44.8665 1030.99 46.8871C1030.99 50.6397 1029.62 53.5263 1026.88 55.547C1024.14 57.5676 1020.27 58.5779 1015.28 58.5779C1013.59 58.5779 1012.03 58.4645 1010.61 58.2377C1009.19 58.0109 1007.92 57.7429 1006.81 57.4336C1005.69 57.1243 1004.73 56.7944 1003.93 56.4439C1003.13 56.0934 1002.5 55.7944 1002.04 55.547L1003.84 50.5984C1004.79 51.1346 1006.23 51.7325 1008.17 52.3923C1010.1 53.0521 1012.48 53.382 1015.28 53.382L1015.28 53.382ZM1080.39 52.4548L1080.39 57.6508L1054.6 57.6508L1054.6 14.7842L1060.6 14.7842L1060.6 52.4548L1080.39 52.4548ZM1087.74 57.6508L1087.74 14.7842L1113.91 14.7842L1113.91 19.9183L1093.74 19.9183L1093.74 32.6607L1111.68 32.6607L1111.68 37.6711L1093.74 37.6711L1093.74 52.5167L1115.45 52.5167L1115.45 57.6508L1087.74 57.6508ZM1139.44 57.6508L1139.44 14.7842L1165.29 14.7842L1165.29 19.9183L1145.44 19.9183L1145.44 32.8463L1163.07 32.8463L1163.07 37.9185L1145.44 37.9185L1145.44 57.6508L1139.44 57.6508ZM1189.65 58.5786C1186.85 58.5786 1184.41 58.1456 1182.35 57.2796C1180.29 56.4136 1178.6 55.228 1177.28 53.7228C1175.96 52.2177 1174.98 50.4341 1174.34 48.3723C1173.7 46.3104 1173.38 44.0836 1173.38 41.6918L1173.38 14.7842L1179.38 14.7842L1179.38 41.0114C1179.38 45.3 1180.33 48.4135 1182.23 50.3517C1184.12 52.2899 1186.6 53.2589 1189.65 53.2589C1191.18 53.2589 1192.57 53.0218 1193.82 52.5475C1195.08 52.0734 1196.17 51.3414 1197.07 50.3517C1197.98 49.3619 1198.68 48.0939 1199.18 46.5475C1199.67 45.0011 1199.92 43.1557 1199.92 41.0114L1199.92 14.7842L1205.92 14.7842L1205.92 41.6918C1205.92 44.0836 1205.6 46.3104 1204.96 48.3723C1204.32 50.4341 1203.33 52.2177 1201.99 53.7228C1200.65 55.228 1198.96 56.4136 1196.92 57.2796C1194.88 58.1456 1192.45 58.5786 1189.65 58.5786L1189.65 58.5786ZM1245.93 14.7842L1245.93 19.9802L1232.44 19.9802L1232.44 57.6508L1226.44 57.6508L1226.44 19.9802L1212.96 19.9802L1212.96 14.7842L1245.93 14.7842ZM1269.24 58.5786C1266.43 58.5786 1264 58.1456 1261.94 57.2796C1259.88 56.4136 1258.19 55.228 1256.87 53.7228C1255.55 52.2177 1254.57 50.4341 1253.93 48.3723C1253.29 46.3104 1252.97 44.0836 1252.97 41.6918L1252.97 14.7842L1258.97 14.7842L1258.97 41.0114C1258.97 45.3 1259.92 48.4135 1261.82 50.3517C1263.71 52.2899 1266.19 53.2589 1269.24 53.2589C1270.76 53.2589 1272.16 53.0218 1273.41 52.5475C1274.67 52.0734 1275.75 51.3414 1276.66 50.3517C1277.57 49.3619 1278.27 48.0939 1278.76 46.5475C1279.26 45.0011 1279.51 43.1557 1279.51 41.0114L1279.51 14.7842L1285.51 14.7842L1285.51 41.6918C1285.51 44.0836 1285.19 46.3104 1284.55 48.3723C1283.91 50.4341 1282.92 52.2177 1281.58 53.7228C1280.24 55.228 1278.55 56.4136 1276.51 57.2796C1274.46 58.1456 1272.04 58.5786 1269.24 58.5786L1269.24 58.5786ZM1317.85 39.7113C1318.51 40.5361 1319.34 41.6185 1320.35 42.9588C1321.37 44.299 1322.41 45.7836 1323.48 47.4124C1324.55 49.0413 1325.61 50.7424 1326.66 52.5156C1327.72 54.2888 1328.61 56.0002 1329.35 57.6497L1322.8 57.6497C1321.97 56.0826 1321.08 54.495 1320.11 52.8867C1319.14 51.2784 1318.16 49.7424 1317.17 48.2784C1316.18 46.8145 1315.2 45.4434 1314.23 44.165C1313.26 42.8866 1312.39 41.7732 1311.6 40.8247C1311.07 40.866 1310.52 40.8866 1309.96 40.8866C1309.41 40.8866 1308.84 40.8866 1308.26 40.8866L1302.88 40.8866L1302.88 57.6497L1296.88 57.6497L1296.88 15.4017C1298.57 14.9893 1300.46 14.711 1302.54 14.5667C1304.62 14.4223 1306.53 14.3502 1308.26 14.3502C1314.28 14.3502 1318.87 15.4842 1322.02 17.7523C1325.18 20.0203 1326.76 23.4019 1326.76 27.8967C1326.76 30.7421 1326 33.1752 1324.5 35.1958C1322.99 37.2164 1320.78 38.7216 1317.85 39.7113L1317.85 39.7113ZM1308.75 19.6081C1306.2 19.6081 1304.24 19.67 1302.88 19.7937L1302.88 35.9382L1307.15 35.9382C1309.21 35.9382 1311.06 35.8351 1312.71 35.629C1314.36 35.4227 1315.75 35.031 1316.89 34.4537C1318.02 33.8763 1318.9 33.0619 1319.52 32.0103C1320.14 30.9588 1320.44 29.567 1320.44 27.835C1320.44 26.2267 1320.14 24.8865 1319.52 23.8143C1318.9 22.7422 1318.06 21.8968 1317.01 21.2783C1315.96 20.6597 1314.72 20.2267 1313.3 19.9792C1311.88 19.7318 1310.36 19.6081 1308.75 19.6081L1308.75 19.6081Z" fill="#FFFFFF" transform="translate(587.138 495.464)" />
  </g>
</svg>