<svg xmlns="http://www.w3.org/2000/svg" width="1820" height="1750" viewBox="0 0 1820 1750" font-family="Segoe UI, Inter, sans-serif">
<defs>
<pattern id="grille" width="22" height="22" patternUnits="userSpaceOnUse"><circle cx="1.5" cy="1.5" r="1" fill="#1C1C1C"/></pattern>
<pattern id="hachure" width="8" height="8" patternUnits="userSpaceOnUse" patternTransform="rotate(45)"><rect width="4" height="8" fill="#3A3A44" opacity="0.55"/></pattern>
<pattern id="damier" width="10" height="10" patternUnits="userSpaceOnUse"><rect width="10" height="10" fill="#3a3a3a"/><rect width="5" height="5" fill="#565656"/><rect x="5" y="5" width="5" height="5" fill="#565656"/></pattern>
<linearGradient id="rampe" x1="0" x2="1"><stop offset="0%" stop-color="#0A555F"/><stop offset="45%" stop-color="#3aa0a8"/><stop offset="75%" stop-color="#F79A28"/><stop offset="100%" stop-color="#ffe9c2"/></linearGradient>
<linearGradient id="ciel" x1="0" y1="0" x2="0" y2="1"><stop offset="0%" stop-color="#2b4a7a"/><stop offset="55%" stop-color="#d99a5a"/><stop offset="100%" stop-color="#141414"/></linearGradient>
<radialGradient id="sphere" cx="0.35" cy="0.30" r="0.75"><stop offset="0%" stop-color="#e8d8c0"/><stop offset="55%" stop-color="#b07a4a"/><stop offset="100%" stop-color="#2a1a12"/></radialGradient>
<filter id="bruit"><feTurbulence type="fractalNoise" baseFrequency="0.09" numOctaves="4" stitchTiles="stitch"/><feColorMatrix type="saturate" values="0"/></filter>
<filter id="ombre" x="-25%" y="-25%" width="150%" height="150%"><feDropShadow dx="0" dy="2" stdDeviation="3" flood-color="#000" flood-opacity="0.55"/></filter>
</defs>
<rect width="1820" height="1750" fill="#121212"/><rect width="1820" height="1750" fill="url(#grille)"/>
<text font-family="Segoe UI, Inter, sans-serif" x="34" y="40" fill="#E8E8EE" font-size="21" font-weight="600">Planche 08 — EXÉCUTION et VALEUR : la cohabitation, et le franchissement</text>
<text font-family="Segoe UI, Inter, sans-serif" x="34" y="62" fill="#8A8A8A" font-size="12.5">quels domaines ont besoin de fils d’exécution · comment les deux familles tiennent dans un même nœud · comment un blueprint et un graphe de matière se parlent SANS se toucher</text>
<text font-family="Segoe UI, Inter, sans-serif" x="34" y="108" fill="#F79A28" font-size="12.5" font-weight="600">1 · UN BLUEPRINT RÉEL — les deux familles de fil dans le même graphe</text>
<text font-family="Segoe UI, Inter, sans-serif" x="34" y="124" fill="#6A6A6A" font-size="10">l’exécution passe AU-DESSUS du filet et se lit de gauche à droite · la valeur passe EN DESSOUS et n’a pas d’ordre</text>
<g filter="url(#ombre)" opacity="1.0">
<rect x="44" y="148" width="250" height="90" fill="#212121" stroke="#33333C" stroke-width="1"/>
<path d="M44 153a5 5 0 0 1 5 -5 h240 a5 5 0 0 1 5 5 v25 H44 z" fill="#8a5a2a"/>
<text font-family="Segoe UI, Inter, sans-serif" x="52" y="162" fill="#F3E9DA" font-size="8">▼</text>
<text font-family="Segoe UI, Inter, sans-serif" x="64" y="162" fill="#EEF2F6" font-size="12.5" font-weight="600">Sur porte ouverte</text>
<text font-family="Segoe UI, Inter, sans-serif" x="64" y="174" fill="#EEF2F6" font-size="9.5" opacity="0.6">Événement</text>
<rect x="44" y="178" width="250" height="3.8" fill="#F79A28"/>
<path d="M282.2 187.0h8.99l6.51 9.0l-6.51 9.0h-8.99z" fill="#F79A28" stroke="#F79A28" stroke-width="1.6"/>
<text font-family="Segoe UI, Inter, sans-serif" x="280" y="200" fill="#F79A28" font-size="11.5" text-anchor="end">Ouverte</text>
<rect x="294" y="209.0" width="6" height="22" rx="2" fill="#212121" stroke="#81EBEB" stroke-width="1.6"/>
<rect x="252" y="212.5" width="30" height="15" rx="2" fill="#81EBEB" opacity="0.22"/>
<text font-family="Segoe UI, Inter, sans-serif" x="267" y="224" fill="#81EBEB" font-size="8.5" font-weight="600" text-anchor="middle">obj</text>
<text font-family="Segoe UI, Inter, sans-serif" x="244" y="224" fill="#C8CCD4" font-size="11.5" text-anchor="end">Acteur</text>
</g>
<text font-family="Segoe UI, Inter, sans-serif" x="44" y="254" fill="#6A6A6A" font-size="10">un ÉVÉNEMENT : aucune entrée d’exécution —</text>
<text font-family="Segoe UI, Inter, sans-serif" x="44" y="268" fill="#6A6A6A" font-size="10">c’est LUI qui démarre le fil.</text>
<g filter="url(#ombre)" opacity="1.0">
<rect x="374" y="148" width="260" height="162" fill="#212121" stroke="#33333C" stroke-width="1"/>
<path d="M374 153a5 5 0 0 1 5 -5 h250 a5 5 0 0 1 5 5 v25 H374 z" fill="#8a5a2a"/>
<text font-family="Segoe UI, Inter, sans-serif" x="382" y="162" fill="#F3E9DA" font-size="8">▼</text>
<text font-family="Segoe UI, Inter, sans-serif" x="394" y="162" fill="#EEF2F6" font-size="12.5" font-weight="600">Jouer l’animation</text>
<text font-family="Segoe UI, Inter, sans-serif" x="394" y="174" fill="#EEF2F6" font-size="9.5" opacity="0.6">Action</text>
<rect x="374" y="178" width="260" height="3.8" fill="#F79A28"/>
<path d="M370.3 187.0h8.99l6.51 9.0l-6.51 9.0h-8.99z" fill="#F79A28" stroke="#F79A28" stroke-width="1.6"/>
<text font-family="Segoe UI, Inter, sans-serif" x="386" y="200" fill="#F79A28" font-size="11.5">Entrer</text>
<path d="M622.2 211.0h8.99l6.51 9.0l-6.51 9.0h-8.99z" fill="#F79A28" stroke="#F79A28" stroke-width="1.6"/>
<text font-family="Segoe UI, Inter, sans-serif" x="620" y="224" fill="#F79A28" font-size="11.5" text-anchor="end">Terminé</text>
<text font-family="Segoe UI, Inter, sans-serif" x="384" y="248" fill="#6A6A6A" font-size="10"></text>
<rect x="368" y="257.0" width="6" height="22" rx="2" fill="#81EBEB" stroke="#81EBEB" stroke-width="1.6"/>
<rect x="382" y="260.5" width="30" height="15" rx="2" fill="#81EBEB" opacity="0.22"/>
<text font-family="Segoe UI, Inter, sans-serif" x="397" y="272" fill="#81EBEB" font-size="8.5" font-weight="600" text-anchor="middle">obj</text>
<text font-family="Segoe UI, Inter, sans-serif" x="418" y="272" fill="#F79A28" font-size="11.5">Cible</text>
<text font-family="Segoe UI, Inter, sans-serif" x="624" y="272" fill="#6A6A6A" font-size="10" text-anchor="end">branchée</text>
<rect x="368" y="281.0" width="6" height="22" rx="2" fill="#212121" stroke="#17B2EB" stroke-width="1.6"/>
<rect x="382" y="284.5" width="30" height="15" rx="2" fill="#17B2EB" opacity="0.22"/>
<text font-family="Segoe UI, Inter, sans-serif" x="397" y="296" fill="#17B2EB" font-size="8.5" font-weight="600" text-anchor="middle">1.0</text>
<text font-family="Segoe UI, Inter, sans-serif" x="418" y="296" fill="#C8CCD4" font-size="11.5">Durée</text>
<rect x="530" y="284" width="92" height="17" rx="2" fill="#2B2B2B"/>
<text font-family="Segoe UI, Inter, sans-serif" x="618" y="296" fill="#C8CCD4" font-size="10.5" text-anchor="end">0.400</text>
</g>
<g filter="url(#ombre)" opacity="1.0">
<rect x="714" y="148" width="260" height="162" fill="#212121" stroke="#33333C" stroke-width="1"/>
<path d="M714 153a5 5 0 0 1 5 -5 h250 a5 5 0 0 1 5 5 v25 H714 z" fill="#8a5a2a"/>
<text font-family="Segoe UI, Inter, sans-serif" x="722" y="162" fill="#F3E9DA" font-size="8">▼</text>
<text font-family="Segoe UI, Inter, sans-serif" x="734" y="162" fill="#EEF2F6" font-size="12.5" font-weight="600">Jouer un son</text>
<text font-family="Segoe UI, Inter, sans-serif" x="734" y="174" fill="#EEF2F6" font-size="9.5" opacity="0.6">Action</text>
<rect x="714" y="178" width="260" height="3.8" fill="#F79A28"/>
<path d="M710.3 187.0h8.99l6.51 9.0l-6.51 9.0h-8.99z" fill="#F79A28" stroke="#F79A28" stroke-width="1.6"/>
<text font-family="Segoe UI, Inter, sans-serif" x="726" y="200" fill="#F79A28" font-size="11.5">Entrer</text>
<path d="M962.2 211.0h8.99l6.51 9.0l-6.51 9.0h-8.99z" fill="#F79A28" stroke="#F79A28" stroke-width="1.6"/>
<text font-family="Segoe UI, Inter, sans-serif" x="960" y="224" fill="#F79A28" font-size="11.5" text-anchor="end">Terminé</text>
<text font-family="Segoe UI, Inter, sans-serif" x="724" y="248" fill="#6A6A6A" font-size="10"></text>
<rect x="708" y="257.0" width="6" height="22" rx="2" fill="#212121" stroke="#81EBEB" stroke-width="1.6"/>
<rect x="722" y="260.5" width="30" height="15" rx="2" fill="#81EBEB" opacity="0.22"/>
<text font-family="Segoe UI, Inter, sans-serif" x="737" y="272" fill="#81EBEB" font-size="8.5" font-weight="600" text-anchor="middle">obj</text>
<text font-family="Segoe UI, Inter, sans-serif" x="758" y="272" fill="#C8CCD4" font-size="11.5">Son</text>
<text font-family="Segoe UI, Inter, sans-serif" x="962" y="272" fill="#6A6A6A" font-size="10.5" text-anchor="end">grincement</text>
<rect x="708" y="281.0" width="6" height="22" rx="2" fill="#17B2EB" stroke="#17B2EB" stroke-width="1.6"/>
<rect x="722" y="284.5" width="30" height="15" rx="2" fill="#17B2EB" opacity="0.22"/>
<text font-family="Segoe UI, Inter, sans-serif" x="737" y="296" fill="#17B2EB" font-size="8.5" font-weight="600" text-anchor="middle">1.0</text>
<text font-family="Segoe UI, Inter, sans-serif" x="758" y="296" fill="#F79A28" font-size="11.5">Volume</text>
<text font-family="Segoe UI, Inter, sans-serif" x="964" y="296" fill="#6A6A6A" font-size="10" text-anchor="end">branchée</text>
</g>
<g filter="url(#ombre)" opacity="1.0">
<rect x="374" y="358" width="260" height="114" fill="#212121" stroke="#33333C" stroke-width="1"/>
<path d="M374 363a5 5 0 0 1 5 -5 h250 a5 5 0 0 1 5 5 v25 H374 z" fill="#4a6b8a"/>
<text font-family="Segoe UI, Inter, sans-serif" x="382" y="372" fill="#F3E9DA" font-size="8">▼</text>
<text font-family="Segoe UI, Inter, sans-serif" x="394" y="372" fill="#EEF2F6" font-size="12.5" font-weight="600">Multiplier</text>
<text font-family="Segoe UI, Inter, sans-serif" x="394" y="384" fill="#EEF2F6" font-size="9.5" opacity="0.6">Maths</text>
<rect x="374" y="388" width="260" height="3.8" fill="#0A555F"/>
<rect x="368" y="395.0" width="6" height="22" rx="2" fill="#212121" stroke="#17B2EB" stroke-width="1.6"/>
<rect x="382" y="398.5" width="30" height="15" rx="2" fill="#17B2EB" opacity="0.22"/>
<text font-family="Segoe UI, Inter, sans-serif" x="397" y="410" fill="#17B2EB" font-size="8.5" font-weight="600" text-anchor="middle">1.0</text>
<text font-family="Segoe UI, Inter, sans-serif" x="418" y="410" fill="#C8CCD4" font-size="11.5">A</text>
<rect x="530" y="398" width="92" height="17" rx="2" fill="#2B2B2B"/>
<text font-family="Segoe UI, Inter, sans-serif" x="618" y="410" fill="#C8CCD4" font-size="10.5" text-anchor="end">0.800</text>
<rect x="368" y="419.0" width="6" height="22" rx="2" fill="#212121" stroke="#17B2EB" stroke-width="1.6"/>
<rect x="382" y="422.5" width="30" height="15" rx="2" fill="#17B2EB" opacity="0.22"/>
<text font-family="Segoe UI, Inter, sans-serif" x="397" y="434" fill="#17B2EB" font-size="8.5" font-weight="600" text-anchor="middle">1.0</text>
<text font-family="Segoe UI, Inter, sans-serif" x="418" y="434" fill="#C8CCD4" font-size="11.5">B</text>
<rect x="530" y="422" width="92" height="17" rx="2" fill="#2B2B2B"/>
<text font-family="Segoe UI, Inter, sans-serif" x="618" y="434" fill="#C8CCD4" font-size="10.5" text-anchor="end">0.500</text>
<rect x="634" y="443.0" width="6" height="22" rx="2" fill="#212121" stroke="#17B2EB" stroke-width="1.6"/>
<rect x="592" y="446.5" width="30" height="15" rx="2" fill="#17B2EB" opacity="0.22"/>
<text font-family="Segoe UI, Inter, sans-serif" x="607" y="458" fill="#17B2EB" font-size="8.5" font-weight="600" text-anchor="middle">1.0</text>
<text font-family="Segoe UI, Inter, sans-serif" x="584" y="458" fill="#C8CCD4" font-size="11.5" text-anchor="end">Résultat</text>
</g>
<path d="M294 196C334 196 334 196 374 196" fill="none" stroke="#F79A28" stroke-width="3.5"/>
<path d="M634 196C674 196 674 196 714 196" fill="none" stroke="#F79A28" stroke-width="3.5"/>
<path d="M634 454C674 454 674 292 714 292" fill="none" stroke="#17B2EB" stroke-width="2"/>
<text font-family="Segoe UI, Inter, sans-serif" x="374" y="488" fill="#F79A28" font-size="10">⚠ ce nœud n’est dans AUCUNE chaîne d’exécution, et pourtant il</text>
<text font-family="Segoe UI, Inter, sans-serif" x="374" y="502" fill="#8A8A8A" font-size="10">est évalué : une valeur est calculée QUAND ON LA DEMANDE.</text>
<text font-family="Segoe UI, Inter, sans-serif" x="374" y="516" fill="#8A8A8A" font-size="10">C’est la différence de nature entre les deux familles, et c’est</text>
<text font-family="Segoe UI, Inter, sans-serif" x="374" y="530" fill="#8A8A8A" font-size="10">la seule chose que ce panneau doit faire comprendre.</text>
<rect x="1000" y="148" width="786" height="138" rx="4" fill="#1A1A1A" stroke="#2E2E36"/>
<text font-family="Segoe UI, Inter, sans-serif" x="1014" y="172" fill="#F79A28" font-size="12" font-weight="600">ce que les deux familles sont, et pourquoi le dessin les sépare ainsi</text>
<text font-family="Segoe UI, Inter, sans-serif" x="1014" y="195" fill="#8A8A8A" font-size="10.5">▸ L’EXÉCUTION est un CHEMIN : elle a un début (l’événement), un ordre, et un seul point à la fois. Elle répond à « quand ».</text>
<text font-family="Segoe UI, Inter, sans-serif" x="1014" y="212" fill="#8A8A8A" font-size="10.5">▸ La VALEUR est une DÉPENDANCE : elle n’a ni début ni ordre, seulement des producteurs et des consommateurs. Elle répond à « avec quoi ».</text>
<text font-family="Segoe UI, Inter, sans-serif" x="1014" y="229" fill="#8A8A8A" font-size="10.5">▸ D’où le dessin : l’exécution est posée SUR L’EN-TÊTE, au-dessus du filet, parce qu’elle concerne le nœud ENTIER — pas une de ses rangées.</text>
<text font-family="Segoe UI, Inter, sans-serif" x="1014" y="246" fill="#8A8A8A" font-size="10.5">   La valeur est posée sur ses rangées, parce que c’est la rangée qu’elle alimente. Le filet orange n’est pas un ornement : c’est la frontière.</text>
<text font-family="Segoe UI, Inter, sans-serif" x="1014" y="263" fill="#8A8A8A" font-size="10.5">▸ ⚠ Un nœud d’exécution garde ses entrées de valeur. L’inverse est faux : un nœud de calcul n’a JAMAIS de prise d’exécution.</text>
<text font-family="Segoe UI, Inter, sans-serif" x="1014" y="280" fill="#8A8A8A" font-size="10.5">   C’est ce qui permet aux deux mondes de partager le même catalogue de nœuds de calcul, sans en dupliquer un seul.</text>
<text font-family="Segoe UI, Inter, sans-serif" x="34" y="560" fill="#F79A28" font-size="12.5" font-weight="600">2 · QUELS DOMAINES ONT BESOIN DE FILS D’EXÉCUTION — et le critère qui décide</text>
<text font-family="Segoe UI, Inter, sans-serif" x="34" y="576" fill="#6A6A6A" font-size="10">la question n’est pas ce qu’on veut, c’est ce dont le domaine a BESOIN · le critère se vérifie domaine par domaine, sans discuter</text>
<rect x="44" y="590" width="66" height="19" rx="3" fill="#4E9A5A" opacity="0.20"/>
<text font-family="Segoe UI, Inter, sans-serif" x="77" y="604" fill="#4E9A5A" font-size="10" font-weight="600" text-anchor="middle">OUI</text>
<text font-family="Segoe UI, Inter, sans-serif" x="122" y="604" fill="#C8CCD4" font-size="11.5" font-weight="600">gameplay</text>
<text font-family="Segoe UI, Inter, sans-serif" x="330" y="604" fill="#8A8A8A" font-size="10.5">« ouvrir la porte » puis « jouer un son » ≠ l’inverse</text>
<rect x="44" y="618" width="66" height="19" rx="3" fill="#4E9A5A" opacity="0.20"/>
<text font-family="Segoe UI, Inter, sans-serif" x="77" y="632" fill="#4E9A5A" font-size="10" font-weight="600" text-anchor="middle">OUI</text>
<text font-family="Segoe UI, Inter, sans-serif" x="122" y="632" fill="#C8CCD4" font-size="11.5" font-weight="600">scripting</text>
<text font-family="Segoe UI, Inter, sans-serif" x="330" y="632" fill="#8A8A8A" font-size="10.5">écrire un fichier, appeler un service : effets de bord</text>
<rect x="44" y="646" width="66" height="19" rx="3" fill="#E06C6C" opacity="0.20"/>
<text font-family="Segoe UI, Inter, sans-serif" x="77" y="660" fill="#E06C6C" font-size="10" font-weight="600" text-anchor="middle">NON</text>
<text font-family="Segoe UI, Inter, sans-serif" x="122" y="660" fill="#C8CCD4" font-size="11.5" font-weight="600">matériau / texture</text>
<text font-family="Segoe UI, Inter, sans-serif" x="330" y="660" fill="#8A8A8A" font-size="10.5">MESURÉ : le modèle n’a aucun type d’exécution (§17)</text>
<rect x="44" y="674" width="66" height="19" rx="3" fill="#E06C6C" opacity="0.20"/>
<text font-family="Segoe UI, Inter, sans-serif" x="77" y="688" fill="#E06C6C" font-size="10" font-weight="600" text-anchor="middle">NON</text>
<text font-family="Segoe UI, Inter, sans-serif" x="122" y="688" fill="#C8CCD4" font-size="11.5" font-weight="600">modélisation procédurale</text>
<text font-family="Segoe UI, Inter, sans-serif" x="330" y="688" fill="#8A8A8A" font-size="10.5">les Geometry Nodes de Blender n’en ont aucun</text>
<rect x="44" y="702" width="66" height="19" rx="3" fill="#F79A28" opacity="0.20"/>
<text font-family="Segoe UI, Inter, sans-serif" x="77" y="716" fill="#F79A28" font-size="10" font-weight="600" text-anchor="middle">À PART</text>
<text font-family="Segoe UI, Inter, sans-serif" x="122" y="716" fill="#C8CCD4" font-size="11.5" font-weight="600">animation (graphe d’états)</text>
<text font-family="Segoe UI, Inter, sans-serif" x="330" y="716" fill="#8A8A8A" font-size="10.5">⚠ ni l’un ni l’autre : ses arcs sont des TRANSITIONS</text>
<text font-family="Segoe UI, Inter, sans-serif" x="44" y="754" fill="#F79A28" font-size="11.5" font-weight="600">LE CRITÈRE — et il se vérifie, il ne se discute pas :</text>
<text font-family="Segoe UI, Inter, sans-serif" x="44" y="774" fill="#C8CCD4" font-size="11">un domaine a besoin de fils d’exécution si, et seulement si, son résultat dépend de l’ORDRE et des EFFETS DE BORD.</text>
<text font-family="Segoe UI, Inter, sans-serif" x="44" y="792" fill="#8A8A8A" font-size="10.5">Quand le résultat est une FONCTION des entrées, il n’y a aucun ordre à énoncer : le tri topologique en fournit un, et</text>
<text font-family="Segoe UI, Inter, sans-serif" x="44" y="808" fill="#8A8A8A" font-size="10.5">n’importe quel autre ordre valide donne le même résultat. Dessiner un fil d’exécution y ajouterait une contrainte FAUSSE.</text>
<rect x="1000" y="600" width="786" height="138" rx="4" fill="#1A1A1A" stroke="#2E2E36"/>
<text font-family="Segoe UI, Inter, sans-serif" x="1014" y="624" fill="#F79A28" font-size="12" font-weight="600">le cas qui ne rentre dans aucune des deux cases — et ce que la frontière offre</text>
<text font-family="Segoe UI, Inter, sans-serif" x="1014" y="647" fill="#8A8A8A" font-size="10.5">▸ ⚠ LE GRAPHE D’ÉTATS D’ANIMATION N’EST NI L’UN NI L’AUTRE, et le ranger dans « exécution » serait une erreur coûteuse :</text>
<text font-family="Segoe UI, Inter, sans-serif" x="1014" y="664" fill="#8A8A8A" font-size="10.5">   ses arcs ne transportent rien et ne déclenchent rien — ils portent une CONDITION et une durée de fondu. Le graphe ne « s’exécute »</text>
<text font-family="Segoe UI, Inter, sans-serif" x="1014" y="681" fill="#8A8A8A" font-size="10.5">   pas de gauche à droite : il a un état COURANT, et il y reste. C’est une troisième famille, et elle mérite sa propre planche.</text>
<text font-family="Segoe UI, Inter, sans-serif" x="1014" y="698" fill="#8A8A8A" font-size="10.5">▸ ✅ CE QUE CE DÉCOUPAGE OFFRE, et c’est la vraie raison de le poser maintenant : un graphe SANS exécution est APPELABLE COMME</text>
<text font-family="Segoe UI, Inter, sans-serif" x="1014" y="715" fill="#8A8A8A" font-size="10.5">   UNE FONCTION. Pur, sans effet de bord, il peut être évalué à la demande, mis en cache, appelé depuis un blueprint (panneau 5).</text>
<text font-family="Segoe UI, Inter, sans-serif" x="1014" y="732" fill="#8A8A8A" font-size="10.5">   Un graphe AVEC exécution ne le peut pas : l’appeler, c’est le LANCER. La frontière du panneau 2 est donc aussi celle du panneau 5.</text>
<text font-family="Segoe UI, Inter, sans-serif" x="34" y="900" fill="#F79A28" font-size="12.5" font-weight="600">3 · 🔴 CE QUE LE MODÈLE NE PERMET PAS AUJOURD’HUI — les DEUX moitiés de la règle d’arité</text>
<text font-family="Segoe UI, Inter, sans-serif" x="34" y="916" fill="#6A6A6A" font-size="10">relevé dans src/NKGraph/NkNodeGraph.h · ce n’est pas un défaut de dessin, c’est un axe qui manque au modèle</text>
<text font-family="Segoe UI, Inter, sans-serif" x="44" y="946" fill="#C8CCD4" font-size="11.5" font-weight="600">a · PLUSIEURS chemins doivent pouvoir mener au MÊME nœud</text>
<g filter="url(#ombre)" opacity="1.0">
<rect x="44" y="960" width="190" height="57" fill="#212121" stroke="#33333C" stroke-width="1"/>
<path d="M44 965a5 5 0 0 1 5 -5 h180 a5 5 0 0 1 5 5 v16 H44 z" fill="#8a5a2a"/>
<text font-family="Segoe UI, Inter, sans-serif" x="64" y="975" fill="#EEF2F6" font-size="12.5" font-weight="600">Si — vrai</text>
<rect x="44" y="981" width="190" height="3.8" fill="#F79A28"/>
<path d="M222.2 990.0h8.99l6.51 9.0l-6.51 9.0h-8.99z" fill="#F79A28" stroke="#F79A28" stroke-width="1.6"/>
<text font-family="Segoe UI, Inter, sans-serif" x="220" y="1003" fill="#F79A28" font-size="11.5" text-anchor="end">Terminé</text>
</g>
<g filter="url(#ombre)" opacity="1.0">
<rect x="44" y="1040" width="190" height="57" fill="#212121" stroke="#33333C" stroke-width="1"/>
<path d="M44 1045a5 5 0 0 1 5 -5 h180 a5 5 0 0 1 5 5 v16 H44 z" fill="#8a5a2a"/>
<text font-family="Segoe UI, Inter, sans-serif" x="64" y="1055" fill="#EEF2F6" font-size="12.5" font-weight="600">Si — faux</text>
<rect x="44" y="1061" width="190" height="3.8" fill="#F79A28"/>
<path d="M222.2 1070.0h8.99l6.51 9.0l-6.51 9.0h-8.99z" fill="#F79A28" stroke="#F79A28" stroke-width="1.6"/>
<text font-family="Segoe UI, Inter, sans-serif" x="220" y="1083" fill="#F79A28" font-size="11.5" text-anchor="end">Terminé</text>
</g>
<g filter="url(#ombre)" opacity="1.0">
<rect x="330" y="1000" width="200" height="57" fill="#212121" stroke="#33333C" stroke-width="1"/>
<path d="M330 1005a5 5 0 0 1 5 -5 h190 a5 5 0 0 1 5 5 v16 H330 z" fill="#8a5a2a"/>
<text font-family="Segoe UI, Inter, sans-serif" x="350" y="1015" fill="#EEF2F6" font-size="12.5" font-weight="600">Fermer la porte</text>
<rect x="330" y="1021" width="200" height="3.8" fill="#F79A28"/>
<path d="M326.3 1030.0h8.99l6.51 9.0l-6.51 9.0h-8.99z" fill="#F79A28" stroke="#F79A28" stroke-width="1.6"/>
<text font-family="Segoe UI, Inter, sans-serif" x="342" y="1043" fill="#F79A28" font-size="11.5">Entrer</text>
</g>
<path d="M234 999C277.2 999 286.8 1039 330 1039" fill="none" stroke="#F79A28" stroke-width="3.5"/>
<path d="M234 1079C277.2 1079 286.8 1039 330 1039" fill="none" stroke="#F79A28" stroke-width="3.5"/>
<text font-family="Segoe UI, Inter, sans-serif" x="44" y="1110" fill="#E06C6C" font-size="10.5" font-weight="600">❌ Connect() : « une ENTRÉE n’accepte qu’UNE source :</text>
<text font-family="Segoe UI, Inter, sans-serif" x="44" y="1124" fill="#8A8A8A" font-size="10">brancher une seconde REMPLACE la première ». Le second</text>
<text font-family="Segoe UI, Inter, sans-serif" x="44" y="1138" fill="#8A8A8A" font-size="10">fil DÉBRANCHERAIT le premier, en silence.</text>
<text font-family="Segoe UI, Inter, sans-serif" x="600" y="946" fill="#C8CCD4" font-size="11.5" font-weight="600">b · UNE sortie d’exécution n’a qu’UNE suite</text>
<g filter="url(#ombre)" opacity="1.0">
<rect x="600" y="1000" width="200" height="57" fill="#212121" stroke="#33333C" stroke-width="1"/>
<path d="M600 1005a5 5 0 0 1 5 -5 h190 a5 5 0 0 1 5 5 v16 H600 z" fill="#8a5a2a"/>
<text font-family="Segoe UI, Inter, sans-serif" x="620" y="1015" fill="#EEF2F6" font-size="12.5" font-weight="600">Ouvrir la porte</text>
<rect x="600" y="1021" width="200" height="3.8" fill="#F79A28"/>
<path d="M788.2 1030.0h8.99l6.51 9.0l-6.51 9.0h-8.99z" fill="#F79A28" stroke="#F79A28" stroke-width="1.6"/>
<text font-family="Segoe UI, Inter, sans-serif" x="786" y="1043" fill="#F79A28" font-size="11.5" text-anchor="end">Terminé</text>
</g>
<g filter="url(#ombre)" opacity="1.0">
<rect x="880" y="960" width="190" height="57" fill="#212121" stroke="#33333C" stroke-width="1"/>
<path d="M880 965a5 5 0 0 1 5 -5 h180 a5 5 0 0 1 5 5 v16 H880 z" fill="#8a5a2a"/>
<text font-family="Segoe UI, Inter, sans-serif" x="900" y="975" fill="#EEF2F6" font-size="12.5" font-weight="600">Jouer un son</text>
<rect x="880" y="981" width="190" height="3.8" fill="#F79A28"/>
<path d="M876.3 990.0h8.99l6.51 9.0l-6.51 9.0h-8.99z" fill="#F79A28" stroke="#F79A28" stroke-width="1.6"/>
<text font-family="Segoe UI, Inter, sans-serif" x="892" y="1003" fill="#F79A28" font-size="11.5">Entrer</text>
</g>
<g filter="url(#ombre)" opacity="1.0">
<rect x="880" y="1040" width="190" height="57" fill="#212121" stroke="#33333C" stroke-width="1"/>
<path d="M880 1045a5 5 0 0 1 5 -5 h180 a5 5 0 0 1 5 5 v16 H880 z" fill="#8a5a2a"/>
<text font-family="Segoe UI, Inter, sans-serif" x="900" y="1055" fill="#EEF2F6" font-size="12.5" font-weight="600">Compter un point</text>
<rect x="880" y="1061" width="190" height="3.8" fill="#F79A28"/>
<path d="M876.3 1070.0h8.99l6.51 9.0l-6.51 9.0h-8.99z" fill="#F79A28" stroke="#F79A28" stroke-width="1.6"/>
<text font-family="Segoe UI, Inter, sans-serif" x="892" y="1083" fill="#F79A28" font-size="11.5">Entrer</text>
</g>
<path d="M806 1039C846 1039 840 999 880 999" fill="none" stroke="#F79A28" stroke-width="3.5"/>
<path d="M806 1039C846 1039 840 1079 880 1079" fill="none" stroke="#E06C6C" stroke-width="3.5"/>
<text font-family="Segoe UI, Inter, sans-serif" x="600" y="1110" fill="#E06C6C" font-size="10.5" font-weight="600">❌ Rien ne limite le nombre de liens partant d’une SORTIE.</text>
<text font-family="Segoe UI, Inter, sans-serif" x="600" y="1124" fill="#8A8A8A" font-size="10">Deux suites, ce sont deux programmes — et rien ne dit lequel</text>
<text font-family="Segoe UI, Inter, sans-serif" x="600" y="1138" fill="#8A8A8A" font-size="10">passe en premier. Il faut REFUSER le second, en le nommant.</text>
<rect x="1120" y="940" width="666" height="206" rx="4" fill="#1A1A1A" stroke="#2E2E36"/>
<text font-family="Segoe UI, Inter, sans-serif" x="1134" y="964" fill="#F79A28" font-size="12" font-weight="600">ce qui manque au modèle — un seul axe absent, et il explique les trois refus</text>
<text font-family="Segoe UI, Inter, sans-serif" x="1134" y="987" fill="#8A8A8A" font-size="10.5">▸ Le cœur applique UNIFORMÉMENT l’arité de la donnée : une entrée, une source ; une sortie, autant de liens qu’on veut.</text>
<text font-family="Segoe UI, Inter, sans-serif" x="1134" y="1004" fill="#8A8A8A" font-size="10.5">▸ Pour l’exécution il faut exactement l’INVERSE, et le catalogue l’écrit déjà : « les arités sont INVERSÉES entre les deux familles ».</text>
<text font-family="Segoe UI, Inter, sans-serif" x="1134" y="1021" fill="#8A8A8A" font-size="10.5">▸ 📌 Ce qui manque n’est pas une exception, c’est un AXE : le socket doit porter sa famille. Une seule valeur, deux lignes dans</text>
<text font-family="Segoe UI, Inter, sans-serif" x="1134" y="1038" fill="#8A8A8A" font-size="10.5">   Connect() — et le refus doit SE NOMMER, comme les six raisons de NkLinkError le font déjà (ExecOutputAlreadyBound).</text>
<text font-family="Segoe UI, Inter, sans-serif" x="1134" y="1055" fill="#8A8A8A" font-size="10.5">▸ ✅ MESURÉ le 23/08 — c’est un MUR, pas un choix, et il tombe PLUS TÔT que je ne le croyais : Connect() refuse le fil lui-même,</text>
<text font-family="Segoe UI, Inter, sans-serif" x="1134" y="1072" fill="#8A8A8A" font-size="10.5">   par NkLinkError::WouldCycle (NkNodeGraph.inl:243). L’utilisateur ne peut pas même TRACER le rebouclage — pas seulement l’évaluer.</text>
<text font-family="Segoe UI, Inter, sans-serif" x="1134" y="1089" fill="#8A8A8A" font-size="10.5">▸ Et TopoSort compte les degrés entrants sur mLinks sans jamais regarder la famille du fil : NkLink ne porte que fromNode/fromSocket/</text>
<text font-family="Segoe UI, Inter, sans-serif" x="1134" y="1106" fill="#8A8A8A" font-size="10.5">   toNode/toSocket. En aval, GraphExpand rend NkPlanError::Cycle — c’est le PLAN ENTIER qui tombe, pas la seule boucle.</text>
<text font-family="Segoe UI, Inter, sans-serif" x="1134" y="1123" fill="#8A8A8A" font-size="10.5">▸ 📌 Rien n’a été décidé CONTRE la boucle : le mot « exec » n’apparaît nulle part dans NKGraph. Ce qu’il faut : n’exiger l’acyclicité</text>
<text font-family="Segoe UI, Inter, sans-serif" x="1134" y="1140" fill="#8A8A8A" font-size="10.5">   que du sous-graphe de DONNÉE. Un cycle d’EXÉCUTION est légitime — l’ordre d’exécution est un CHEMIN parcouru, pas un tri.</text>
<text font-family="Segoe UI, Inter, sans-serif" x="34" y="1210" fill="#F79A28" font-size="12.5" font-weight="600">4 · LE FRANCHISSEMENT (1) — par PARAMÈTRE EXPOSÉ : on POUSSE une valeur dans un graphe vivant</text>
<text font-family="Segoe UI, Inter, sans-serif" x="34" y="1226" fill="#6A6A6A" font-size="10">aucun fil ne traverse · les deux graphes ne partagent jamais un canevas · le lien se fait par un NOM</text>
<g filter="url(#ombre)" opacity="1.0">
<rect x="44" y="1250" width="290" height="186" fill="#212121" stroke="#33333C" stroke-width="1"/>
<path d="M44 1255a5 5 0 0 1 5 -5 h280 a5 5 0 0 1 5 5 v25 H44 z" fill="#8a5a2a"/>
<text font-family="Segoe UI, Inter, sans-serif" x="52" y="1264" fill="#F3E9DA" font-size="8">▼</text>
<text font-family="Segoe UI, Inter, sans-serif" x="64" y="1264" fill="#EEF2F6" font-size="12.5" font-weight="600">Définir un paramètre</text>
<text font-family="Segoe UI, Inter, sans-serif" x="64" y="1276" fill="#EEF2F6" font-size="9.5" opacity="0.6">Action · blueprint</text>
<rect x="44" y="1280" width="290" height="3.8" fill="#F79A28"/>
<path d="M40.3 1289.0h8.99l6.51 9.0l-6.51 9.0h-8.99z" fill="#F79A28" stroke="#F79A28" stroke-width="1.6"/>
<text font-family="Segoe UI, Inter, sans-serif" x="56" y="1302" fill="#F79A28" font-size="11.5">Entrer</text>
<path d="M322.2 1313.0h8.99l6.51 9.0l-6.51 9.0h-8.99z" fill="#F79A28" stroke="#F79A28" stroke-width="1.6"/>
<text font-family="Segoe UI, Inter, sans-serif" x="320" y="1326" fill="#F79A28" font-size="11.5" text-anchor="end">Terminé</text>
<text font-family="Segoe UI, Inter, sans-serif" x="54" y="1350" fill="#6A6A6A" font-size="10"></text>
<rect x="38" y="1359.0" width="6" height="22" rx="2" fill="#212121" stroke="#81EBEB" stroke-width="1.6"/>
<rect x="52" y="1362.5" width="30" height="15" rx="2" fill="#81EBEB" opacity="0.22"/>
<text font-family="Segoe UI, Inter, sans-serif" x="67" y="1374" fill="#81EBEB" font-size="8.5" font-weight="600" text-anchor="middle">obj</text>
<text font-family="Segoe UI, Inter, sans-serif" x="88" y="1374" fill="#C8CCD4" font-size="11.5">Matériau</text>
<text font-family="Segoe UI, Inter, sans-serif" x="322" y="1374" fill="#6A6A6A" font-size="10.5" text-anchor="end">mur_pierre</text>
<rect x="38" y="1383.0" width="6" height="22" rx="2" fill="#F2559B" stroke="#F2559B" stroke-width="1.6"/>
<rect x="52" y="1386.5" width="30" height="15" rx="2" fill="#F2559B" opacity="0.22"/>
<text font-family="Segoe UI, Inter, sans-serif" x="67" y="1398" fill="#F2559B" font-size="8.5" font-weight="600" text-anchor="middle">txt</text>
<text font-family="Segoe UI, Inter, sans-serif" x="88" y="1398" fill="#F79A28" font-size="11.5">Nom</text>
<text font-family="Segoe UI, Inter, sans-serif" x="322" y="1398" fill="#6A6A6A" font-size="10.5" text-anchor="end">« Rugosité »</text>
<rect x="38" y="1407.0" width="6" height="22" rx="2" fill="#212121" stroke="#17B2EB" stroke-width="1.6"/>
<rect x="52" y="1410.5" width="30" height="15" rx="2" fill="#17B2EB" opacity="0.22"/>
<text font-family="Segoe UI, Inter, sans-serif" x="67" y="1422" fill="#17B2EB" font-size="8.5" font-weight="600" text-anchor="middle">1.0</text>
<text font-family="Segoe UI, Inter, sans-serif" x="88" y="1422" fill="#C8CCD4" font-size="11.5">Valeur</text>
<rect x="230" y="1410" width="92" height="17" rx="2" fill="#2B2B2B"/>
<text font-family="Segoe UI, Inter, sans-serif" x="318" y="1422" fill="#C8CCD4" font-size="10.5" text-anchor="end">0.850</text>
</g>
<g filter="url(#ombre)" opacity="1.0">
<rect x="470" y="1250" width="250" height="66" fill="#212121" stroke="#33333C" stroke-width="1"/>
<path d="M470 1255a5 5 0 0 1 5 -5 h240 a5 5 0 0 1 5 5 v25 H470 z" fill="#0A555F"/>
<text font-family="Segoe UI, Inter, sans-serif" x="478" y="1264" fill="#F3E9DA" font-size="8">▼</text>
<text font-family="Segoe UI, Inter, sans-serif" x="490" y="1264" fill="#EEF2F6" font-size="12.5" font-weight="600">Paramètre « Rugosité »</text>
<text font-family="Segoe UI, Inter, sans-serif" x="490" y="1276" fill="#EEF2F6" font-size="9.5" opacity="0.6">Source · matériau</text>
<rect x="470" y="1280" width="250" height="3.8" fill="#0A555F"/>
<rect x="720" y="1287.0" width="6" height="22" rx="2" fill="#212121" stroke="#17B2EB" stroke-width="1.6"/>
<rect x="678" y="1290.5" width="30" height="15" rx="2" fill="#17B2EB" opacity="0.22"/>
<text font-family="Segoe UI, Inter, sans-serif" x="693" y="1302" fill="#17B2EB" font-size="8.5" font-weight="600" text-anchor="middle">1.0</text>
<text font-family="Segoe UI, Inter, sans-serif" x="670" y="1302" fill="#C8CCD4" font-size="11.5" text-anchor="end">Valeur</text>
</g>
<g filter="url(#ombre)" opacity="1.0">
<rect x="770" y="1250" width="230" height="90" fill="#212121" stroke="#33333C" stroke-width="1"/>
<path d="M770 1255a5 5 0 0 1 5 -5 h220 a5 5 0 0 1 5 5 v25 H770 z" fill="#2a6b6b"/>
<text font-family="Segoe UI, Inter, sans-serif" x="778" y="1264" fill="#F3E9DA" font-size="8">▼</text>
<text font-family="Segoe UI, Inter, sans-serif" x="790" y="1264" fill="#EEF2F6" font-size="12.5" font-weight="600">Principled</text>
<text font-family="Segoe UI, Inter, sans-serif" x="790" y="1276" fill="#EEF2F6" font-size="9.5" opacity="0.6">Surface</text>
<rect x="770" y="1280" width="230" height="3.8" fill="#0A555F"/>
<rect x="764" y="1287.0" width="6" height="22" rx="2" fill="#17B2EB" stroke="#17B2EB" stroke-width="1.6"/>
<rect x="778" y="1290.5" width="30" height="15" rx="2" fill="#17B2EB" opacity="0.22"/>
<text font-family="Segoe UI, Inter, sans-serif" x="793" y="1302" fill="#17B2EB" font-size="8.5" font-weight="600" text-anchor="middle">1.0</text>
<text font-family="Segoe UI, Inter, sans-serif" x="814" y="1302" fill="#F79A28" font-size="11.5">Rugosité</text>
<text font-family="Segoe UI, Inter, sans-serif" x="990" y="1302" fill="#6A6A6A" font-size="10" text-anchor="end">branchée</text>
<rect x="1000" y="1311.0" width="6" height="22" rx="2" fill="#D9B6A3" stroke="#D9B6A3" stroke-width="1.6"/>
<rect x="958" y="1314.5" width="30" height="15" rx="2" fill="#D9B6A3" opacity="0.22"/>
<text font-family="Segoe UI, Inter, sans-serif" x="973" y="1326" fill="#D9B6A3" font-size="8.5" font-weight="600" text-anchor="middle">SH</text>
<text font-family="Segoe UI, Inter, sans-serif" x="950" y="1326" fill="#F79A28" font-size="11.5" text-anchor="end">Surface</text>
</g>
<path d="M720 1298C760 1298 730 1298 770 1298" fill="none" stroke="#17B2EB" stroke-width="2"/>
<rect x="404" y="1240" width="2" height="150" fill="#F79A28" opacity="0.45"/>
<text font-family="Segoe UI, Inter, sans-serif" x="414" y="1408" fill="#F79A28" font-size="10" font-weight="600">FRONTIÈRE — deux documents</text>
<text font-family="Segoe UI, Inter, sans-serif" x="414" y="1422" fill="#6A6A6A" font-size="10">aucun fil ne la traverse</text>
<text font-family="Segoe UI, Inter, sans-serif" x="44" y="1452" fill="#8A8A8A" font-size="10">le blueprint ne CONNAÎT pas le graphe de matière : il nomme un paramètre.</text>
<text font-family="Segoe UI, Inter, sans-serif" x="44" y="1466" fill="#F79A28" font-size="10">⚠ le nom est donc une CLÉ publique — le renommer casse le blueprint, en silence,</text>
<text font-family="Segoe UI, Inter, sans-serif" x="44" y="1480" fill="#8A8A8A" font-size="10">et c’est le seul coût réel de ce mécanisme. Il faut le refuser ou le répercuter.</text>
<text font-family="Segoe UI, Inter, sans-serif" x="1060" y="1210" fill="#F79A28" font-size="12.5" font-weight="600">5 · LE FRANCHISSEMENT (2) — par APPEL DE GRAPHE, comme une FONCTION</text>
<text font-family="Segoe UI, Inter, sans-serif" x="1060" y="1226" fill="#6A6A6A" font-size="10">le graphe appelé devient un NŒUD · ses prises sont celles de son interface · il DOIT être pur, et le panneau 2 dit lequel l’est</text>
<g filter="url(#ombre)" opacity="1.0">
<rect x="1070" y="1250" width="300" height="114" fill="#212121" stroke="#33333C" stroke-width="1"/>
<path d="M1070 1255a5 5 0 0 1 5 -5 h290 a5 5 0 0 1 5 5 v25 H1070 z" fill="#6b4a8a"/>
<text font-family="Segoe UI, Inter, sans-serif" x="1078" y="1264" fill="#F3E9DA" font-size="8">▼</text>
<text font-family="Segoe UI, Inter, sans-serif" x="1090" y="1264" fill="#EEF2F6" font-size="12.5" font-weight="600">Bruit de surface</text>
<text font-family="Segoe UI, Inter, sans-serif" x="1090" y="1276" fill="#EEF2F6" font-size="9.5" opacity="0.6">Graphe appelé ③</text>
<rect x="1070" y="1280" width="300" height="3.8" fill="#0A555F"/>
<rect x="1064" y="1287.0" width="6" height="22" rx="2" fill="#212121" stroke="#17B2EB" stroke-width="1.6"/>
<rect x="1078" y="1290.5" width="30" height="15" rx="2" fill="#17B2EB" opacity="0.22"/>
<text font-family="Segoe UI, Inter, sans-serif" x="1093" y="1302" fill="#17B2EB" font-size="8.5" font-weight="600" text-anchor="middle">1.0</text>
<text font-family="Segoe UI, Inter, sans-serif" x="1114" y="1302" fill="#C8CCD4" font-size="11.5">Échelle</text>
<rect x="1266" y="1290" width="92" height="17" rx="2" fill="#2B2B2B"/>
<text font-family="Segoe UI, Inter, sans-serif" x="1354" y="1302" fill="#C8CCD4" font-size="10.5" text-anchor="end">4.000</text>
<rect x="1064" y="1311.0" width="6" height="22" rx="2" fill="#17B2EB" stroke="#17B2EB" stroke-width="1.6"/>
<rect x="1078" y="1314.5" width="30" height="15" rx="2" fill="#17B2EB" opacity="0.22"/>
<text font-family="Segoe UI, Inter, sans-serif" x="1093" y="1326" fill="#17B2EB" font-size="8.5" font-weight="600" text-anchor="middle">1.0</text>
<text font-family="Segoe UI, Inter, sans-serif" x="1114" y="1326" fill="#F79A28" font-size="11.5">Détail</text>
<text font-family="Segoe UI, Inter, sans-serif" x="1360" y="1326" fill="#6A6A6A" font-size="10" text-anchor="end">branchée</text>
<rect x="1370" y="1335.0" width="6" height="22" rx="2" fill="#212121" stroke="#17B2EB" stroke-width="1.6"/>
<rect x="1328" y="1338.5" width="30" height="15" rx="2" fill="#17B2EB" opacity="0.22"/>
<text font-family="Segoe UI, Inter, sans-serif" x="1343" y="1350" fill="#17B2EB" font-size="8.5" font-weight="600" text-anchor="middle">1.0</text>
<text font-family="Segoe UI, Inter, sans-serif" x="1320" y="1350" fill="#C8CCD4" font-size="11.5" text-anchor="end">Facteur</text>
</g>
<text font-family="Segoe UI, Inter, sans-serif" x="1070" y="1380" fill="#7FB77E" font-size="10.5" font-weight="600">✅ CE MÉCANISME EXISTE DÉJÀ DANS LE MODÈLE, et je ne l’invente pas :</text>
<text font-family="Segoe UI, Inter, sans-serif" x="1070" y="1394" fill="#8A8A8A" font-size="10">NkNode porte un champ subgraph — « nom du graphe instancié dans le</text>
<text font-family="Segoe UI, Inter, sans-serif" x="1070" y="1408" fill="#8A8A8A" font-size="10">document », renseigné uniquement sur un nœud de type NK_NODE_INSTANCE.</text>
<text font-family="Segoe UI, Inter, sans-serif" x="1070" y="1426" fill="#F79A28" font-size="10">⚠ Et ③ n’est pas un ornement : on entre par UNE instance mais on édite la</text>
<text font-family="Segoe UI, Inter, sans-serif" x="1070" y="1440" fill="#8A8A8A" font-size="10">DÉFINITION, qui est PARTAGÉE. C’est le compteur du fil d’Ariane (planche 06).</text>
<rect x="34" y="1510" width="1010" height="172" rx="4" fill="#1A1A1A" stroke="#2E2E36"/>
<text font-family="Segoe UI, Inter, sans-serif" x="48" y="1534" fill="#F79A28" font-size="12" font-weight="600">quand employer l’un plutôt que l’autre — et le sens qu’il faut refuser</text>
<text font-family="Segoe UI, Inter, sans-serif" x="48" y="1557" fill="#8A8A8A" font-size="10.5">▸ LES DEUX MÉCANISMES NE SONT PAS DES VARIANTES DU MÊME, et les confondre coûterait cher : le PARAMÈTRE pousse une valeur dans un graphe</text>
<text font-family="Segoe UI, Inter, sans-serif" x="48" y="1574" fill="#8A8A8A" font-size="10.5">   qui VIT et se recalcule tout seul ; l’APPEL évalue un graphe à la demande et récupère son résultat. L’un écrit, l’autre lit.</text>
<text font-family="Segoe UI, Inter, sans-serif" x="48" y="1591" fill="#8A8A8A" font-size="10.5">▸ Le choix ne se discute pas non plus, il se déduit : le blueprint veut-il CHANGER l’apparence d’un objet du monde (paramètre), ou</text>
<text font-family="Segoe UI, Inter, sans-serif" x="48" y="1608" fill="#8A8A8A" font-size="10.5">   RÉUTILISER un calcul (appel) ? La première question a une réponse dans le monde, la seconde dans le graphe.</text>
<text font-family="Segoe UI, Inter, sans-serif" x="48" y="1625" fill="#8A8A8A" font-size="10.5">▸ 🔴 L’APPEL EXIGE QUE LE GRAPHE APPELÉ SOIT PUR — sans exécution, sans effet de bord — sinon « l’appeler » voudrait dire « le lancer »,</text>
<text font-family="Segoe UI, Inter, sans-serif" x="48" y="1642" fill="#8A8A8A" font-size="10.5">   et il faudrait décider quand. C’est exactement la frontière du panneau 2 : ce qui n’a pas de fil d’exécution est appelable, le reste non.</text>
<text font-family="Segoe UI, Inter, sans-serif" x="48" y="1659" fill="#8A8A8A" font-size="10.5">▸ ⚠ Le sens inverse — un graphe de matière qui appellerait un blueprint — est REFUSÉ, et il faut le dire au moment du branchement :</text>
<text font-family="Segoe UI, Inter, sans-serif" x="48" y="1676" fill="#8A8A8A" font-size="10.5">   un matériau se recalcule à chaque image et à chaque pixel. Y loger un effet de bord, c’est le déclencher un million de fois.</text>
<text font-family="Segoe UI, Inter, sans-serif" x="34" y="1706" fill="#6A6A6A" font-size="10">fil d’exécution : 3,5 px, TOUJOURS orange, jamais coloré par un type · fil de valeur : 2 px, couleur du type · prise d’exécution sur l’EN-TÊTE, prise de donnée sur sa rangée</text>
<text font-family="Segoe UI, Inter, sans-serif" x="34" y="1724" fill="#6A6A6A" font-size="10">⚠ PLANCHE D’ÉTUDE — les prises y sont dessinées à environ 2,1 × leur échelle relative pour rester lisibles. Les RATIOS de la spécification font foi, jamais les pixels de cette planche.</text>
</svg>
