<?xml version="1.0" encoding="utf-8"?>
<svg width="27.433" height="24.667" viewBox="0 0 27.433 24.667" fill="none" xmlns="http://www.w3.org/2000/svg">
  <path id="Accueil" d="M13.771 0.000976563C13.4568 -0.00878906 13.1462 0.0708008 12.8752 0.22998C12.8752 0.22998 0.875244 7.29004 0.875244 7.29004C0.195068 7.65723 -0.143555 8.44385 0.0576172 9.18994C0.258545 9.93652 0.946289 10.4468 1.71899 10.4229C1.71899 10.4229 1.71899 23.001 1.71899 23.001C1.71899 23.9209 2.46509 24.6675 3.3855 24.6675C3.3855 24.6675 24.0522 24.6675 24.0522 24.6675C24.9727 24.6675 25.719 23.9214 25.719 23.001C25.719 23.001 25.719 10.4199 25.719 10.4199C26.4897 10.4419 27.1746 9.93213 27.3752 9.1875C27.5759 8.44336 27.24 7.6582 26.5627 7.29004C26.5627 7.29004 14.5627 0.22998 14.5627 0.22998C14.3223 0.0883789 14.05 0.00976563 13.771 0.000976563C13.771 0.000976563 13.771 0.000976563 13.771 0.000976563ZM13.719 3.60254L22.3857 8.69873L22.3857 21.334L19.0522 21.334C19.0522 21.334 19.0522 13.001 19.0522 13.001C19.0522 12.0806 18.3064 11.3345 17.3857 11.334C17.3857 11.334 10.0522 11.334 10.0522 11.334C9.13184 11.334 8.38574 12.0806 8.38574 13.001C8.38574 13.001 8.38574 21.334 8.38574 21.334L5.05225 21.334L5.05225 8.69873L13.719 3.60254L13.719 3.60254ZM11.719 14.6675L15.719 14.6675L15.719 21.334L11.719 21.334L11.719 14.6675L11.719 14.6675Z" fill="#FFFFFF" />
</svg>