<?xml version="1.0" encoding="utf-8"?>
<svg width="18" height="12.06" viewBox="0 0 18 12.06" fill="none" xmlns="http://www.w3.org/2000/svg">
  <g id="Exemple">
    <g>
      <path id="Rectangle" d="M0.893693 0.321801C2.38105 0.157415 5.36295 -0.123074 7.00679 0.0595758C9.25679 0.309576 9 3.0598 9 3.0598C9 3.0598 8.82158 0.309576 11.0716 0.0595758C12.7103 -0.122501 15.6371 0.155662 17.1065 0.320252C17.6004 0.375575 18 0.830146 18 1.32715L18 11.1597C18 11.6567 17.602 11.9967 17.1109 11.9207C15.6308 11.6918 12.6619 11.2422 11.0144 11.0596C8.75946 10.8096 8.98022 11.0596 8.98022 11.0596C8.98022 11.0596 9.29059 10.8096 7.04553 11.0596C5.40092 11.2427 2.38499 11.6942 0.889408 11.9226C0.398101 11.9976 0 11.6567 0 11.1597L0 1.32715C0 0.830146 0.399699 0.376398 0.893693 0.321801Z" />
      <path d="M8.34914 0.72086C8.05216 0.384623 7.6237 0.128121 7.00679 0.0595758C5.36295 -0.123074 2.38105 0.157415 0.893693 0.321801C0.399699 0.376398 0 0.830146 0 1.32715L0 11.1597C0 11.6567 0.398101 11.9976 0.889408 11.9226C2.38499 11.6942 5.40092 11.2427 7.04553 11.0596C7.40812 11.0192 7.70406 10.9919 7.94541 10.9744C7.95872 10.9734 7.97187 10.9725 7.98486 10.9716C8.54905 10.9324 8.80343 10.9489 8.91429 10.9777C8.95895 10.9893 8.98032 11.0029 8.98926 11.0157C8.96474 11.0368 8.97713 11.0556 8.97977 11.059L8.98022 11.0596L8.98156 11.0584C8.9866 11.0537 9.00337 11.0357 8.98926 11.0157C9.00252 11.0042 9.02657 10.9921 9.06878 10.9814C9.18605 10.9515 9.44352 10.9322 9.99932 10.9674Q9.99026 10.883 9.96752 10.7944Q9.99521 10.8806 10.0028 10.9676C10.2671 10.9844 10.5987 11.0135 11.0144 11.0596C12.6619 11.2422 15.6308 11.6918 17.1109 11.9207C17.602 11.9967 18 11.6567 18 11.1597L18 1.32715C18 0.830146 17.6004 0.375575 17.1065 0.320252C15.6371 0.155662 12.7103 -0.122501 11.0716 0.0595758C10.4513 0.128499 10.0155 0.387458 9.70975 0.72643C9.17604 1.31807 9.03822 2.15347 9.00583 2.64761C8.98726 2.15192 8.87197 1.31282 8.34914 0.72086ZM9 3.0598C9 3.0598 8.98946 2.89725 9.00583 2.64761C9.01518 2.89725 9 3.0598 9 3.0598ZM10.0249 2.21965Q10.0419 2.65625 9.99569 3.15258L9.99567 3.15276L8.0021 3.12453Q7.97012 2.63156 7.99909 2.1979Q7.85817 1.16033 6.89636 1.05346Q5.14123 0.858445 1.00355 1.31575Q1 1.31614 1 1.32715L1 10.8941Q5.10778 10.2692 6.93486 10.0657Q8.46442 9.89539 9.00313 9.97688Q9.0094 9.97598 9.01558 9.97513Q9.59216 9.89576 11.1246 10.0657Q12.9562 10.2687 17 10.8918L17 1.32715Q17 1.31458 16.9952 1.31404Q12.9324 0.858968 11.182 1.05346Q10.1972 1.16288 10.0249 2.21965Z" fill="#FFFFFF" fill-rule="evenodd" />
    </g>
    <line id="Line" x1="0" y1="0" x2="0" y2="8" fill="none" stroke-width="2" stroke="#FFFFFF" stroke-linecap="round" transform="translate(8 3.06)" />
  </g>
</svg>