<?xml version="1.0" encoding="utf-8"?>
<svg width="26.667" height="22.667" viewBox="0 0 26.667 22.667" fill="none" xmlns="http://www.w3.org/2000/svg">
  <path id="OuvrirUnDossier" d="M3 0C1.35864 0 0 1.3584 0 3C0 3 0 19.6665 0 19.6665C0 21.3081 1.35864 22.6665 3 22.6665C3 22.6665 23.6667 22.6665 23.6667 22.6665C25.3081 22.6665 26.6667 21.3081 26.6667 19.6665C26.6667 19.6665 26.6667 5.6665 26.6667 5.6665C26.6667 4.02539 25.3081 2.6665 23.6667 2.6665C23.6667 2.6665 11.4949 2.6665 11.4949 2.6665C11.3169 2.6665 11.1487 2.59668 11.0234 2.47119C11.0234 2.47119 9.52856 0.976563 9.52856 0.976563C8.90454 0.352539 8.05542 0 7.17188 0C7.17188 0 3 0 3 0C3 0 3 0 3 0ZM3 2.6665C3 2.6665 7.17188 2.6665 7.17188 2.6665C7.34961 2.6665 7.51807 2.73682 7.64331 2.86182C7.64331 2.86182 9.13794 4.35693 9.13794 4.35693C9.76221 4.98096 10.6113 5.3335 11.4949 5.3335C11.4949 5.3335 23.6667 5.3335 23.6667 5.3335C23.8652 5.3335 24 5.46826 24 5.6665C24 5.6665 24 19.6665 24 19.6665C24 19.8652 23.8652 20 23.6667 20C23.6667 20 3 20 3 20C2.80151 20 2.66675 19.8652 2.66675 19.6665C2.66675 19.6665 2.66675 3 2.66675 3C2.66675 2.80127 2.80151 2.6665 3 2.6665C3 2.6665 3 2.6665 3 2.6665Z" fill="#FFFFFF" />
</svg>