<?xml version="1.0" encoding="utf-8"?>
<svg width="40" height="32" viewBox="0 0 40 32" fill="none" xmlns="http://www.w3.org/2000/svg">
  <path id="Ouvrir" d="M4.5 0C2.03247 0 0 2.03271 0 4.5C0 4.5 0 27.5 0 27.5C0 29.9673 2.03247 32 4.5 32C4.5 32 35.5 32 35.5 32C37.9675 32 40 29.9673 40 27.5C40 27.5 40 9.5 40 9.5C40 7.03271 37.9675 5 35.5 5C35.5 5 20.043 5 20.043 5C20.043 5 15.5723 1.27539 15.5723 1.27539C14.584 0.452148 13.3391 0 12.0527 0C12.0527 0 4.5 0 4.5 0C4.5 0 4.5 0 4.5 0ZM4.5 3C4.5 3 12.0527 3 12.0527 3C12.6384 3 13.2026 3.20557 13.6523 3.58008C13.6523 3.58008 17.1563 6.5 17.1563 6.5C17.1563 6.5 13.6523 9.41992 13.6523 9.41992C13.2026 9.79443 12.6384 10 12.0527 10C12.0527 10 3 10 3 10C3 10 3 4.5 3 4.5C3 3.65332 3.65356 3 4.5 3C4.5 3 4.5 3 4.5 3ZM20.043 8C20.043 8 35.5 8 35.5 8C36.3464 8 37 8.65332 37 9.5C37 9.5 37 27.5 37 27.5C37 28.3467 36.3464 29 35.5 29C35.5 29 4.5 29 4.5 29C3.65356 29 3 28.3467 3 27.5C3 27.5 3 13 3 13C3 13 12.0527 13 12.0527 13C13.3391 13 14.584 12.5479 15.5723 11.7246C15.5723 11.7246 20.043 8 20.043 8L20.043 8Z" fill="#FFFFFF" />
</svg>