<?xml version="1.0" encoding="utf-8"?>
<svg width="31.998" height="32" viewBox="0 0 31.998 32" fill="none" xmlns="http://www.w3.org/2000/svg">
  <path id="Shape" d="M26.876 31.122C26.876 31.122 21.546 25.794 21.546 25.794C19.368 27.192 16.776 28 14 28C6.27 28 0 21.73 0 14C0 6.272 6.27 0 14 0C21.728 0 28 6.272 28 14C28 16.782 27.186 19.374 25.79 21.552C25.79 21.552 31.12 26.88 31.12 26.88C32.29 28.05 32.29 29.952 31.12 31.122C29.948 32.292 28.048 32.292 26.876 31.122C26.876 31.122 26.876 31.122 26.876 31.122ZM24 14C24 8.482 19.518 4 14 4C8.48 4 4 8.482 4 14C4 19.52 8.48 24 14 24C19.518 24 24 19.52 24 14C24 14 24 14 24 14Z" fill="#FFFFFF" transform="translate(0 0)" />
</svg>