<?xml version="1.0" encoding="utf-8"?>
<svg width="33" height="33" viewBox="0 0 33 33" fill="none" xmlns="http://www.w3.org/2000/svg">
  <path id="Star" d="M15.4651 0.501953L19.2981 8.26807Q19.3465 8.36621 19.417 8.44987Q19.4875 8.53354 19.576 8.59784Q19.6645 8.66215 19.7659 8.70335Q19.8673 8.74456 19.9756 8.76025L28.5461 10.0059Q28.5771 10.0104 28.6077 10.017Q28.6383 10.0236 28.6683 10.0324Q28.6984 10.0411 28.7277 10.0519Q28.7571 10.0628 28.7856 10.0756Q28.8142 10.0884 28.8418 10.1032Q28.8694 10.118 28.8958 10.1346Q28.9223 10.1513 28.9476 10.1697Q28.9729 10.1882 28.9968 10.2084Q29.0207 10.2285 29.0432 10.2503Q29.0657 10.2721 29.0866 10.2954Q29.1075 10.3187 29.1267 10.3434Q29.1459 10.368 29.1634 10.394Q29.1809 10.42 29.1965 10.4471Q29.2121 10.4742 29.2258 10.5023Q29.2395 10.5304 29.2512 10.5595Q29.2629 10.5885 29.2726 10.6182Q29.2823 10.648 29.2899 10.6783Q29.2974 10.7087 29.3029 10.7395Q29.3083 10.7703 29.3116 10.8014Q29.3149 10.8325 29.3161 10.8638Q29.3172 10.8951 29.3162 10.9263Q29.3151 10.9576 29.3119 10.9887Q29.3087 11.0199 29.3033 11.0507Q29.2979 11.0815 29.2904 11.1119Q29.2829 11.1423 29.2734 11.172Q29.2638 11.2018 29.2521 11.2309Q29.2405 11.2599 29.2269 11.2881Q29.2132 11.3162 29.1977 11.3434Q29.1821 11.3705 29.1647 11.3965Q29.1473 11.4225 29.1282 11.4473Q29.109 11.472 29.0882 11.4953Q29.0673 11.5187 29.0449 11.5405L22.8433 17.5859Q22.7649 17.6623 22.7071 17.7552Q22.6493 17.8481 22.6155 17.9521Q22.5817 18.0562 22.5738 18.1653Q22.566 18.2745 22.5845 18.3823L24.0483 26.9185Q24.0536 26.9493 24.0568 26.9804Q24.0599 27.0116 24.0609 27.0428Q24.0618 27.0741 24.0606 27.1054Q24.0594 27.1366 24.056 27.1677Q24.0527 27.1989 24.0471 27.2297Q24.0416 27.2605 24.0339 27.2908Q24.0263 27.3211 24.0165 27.3509Q24.0068 27.3806 23.995 27.4096Q23.9832 27.4386 23.9694 27.4667Q23.9557 27.4948 23.94 27.5218Q23.9243 27.5489 23.9067 27.5748Q23.8892 27.6007 23.8699 27.6254Q23.8506 27.65 23.8297 27.6733Q23.8087 27.6965 23.7862 27.7182Q23.7637 27.7399 23.7397 27.7601Q23.7157 27.7802 23.6904 27.7986Q23.6651 27.817 23.6385 27.8335Q23.612 27.8501 23.5844 27.8648Q23.5568 27.8796 23.5282 27.8923Q23.4996 27.9051 23.4702 27.9158Q23.4408 27.9266 23.4108 27.9352Q23.3807 27.9439 23.3501 27.9505Q23.3195 27.957 23.2885 27.9614Q23.2575 27.9659 23.2263 27.9681Q23.1951 27.9704 23.1638 27.9705Q23.1325 27.9706 23.1013 27.9685Q23.0701 27.9664 23.0391 27.9621Q23.0081 27.9579 22.9774 27.9515Q22.9468 27.9451 22.9167 27.9366Q22.8866 27.9281 22.8571 27.9175Q22.8277 27.9069 22.799 27.8943Q22.7704 27.8817 22.7427 27.8672L15.0769 23.8369Q14.9801 23.786 14.8738 23.7597Q14.7676 23.7335 14.6582 23.7335Q14.5488 23.7335 14.4426 23.7598Q14.3363 23.786 14.2395 23.8369L6.57373 27.8672Q6.54603 27.8817 6.51739 27.8943Q6.48874 27.9069 6.45929 27.9175Q6.42984 27.9281 6.39972 27.9366Q6.36961 27.9451 6.33898 27.9515Q6.30834 27.9579 6.27734 27.9621Q6.24634 27.9664 6.21511 27.9685Q6.18389 27.9706 6.1526 27.9705Q6.1213 27.9704 6.09009 27.9681Q6.05888 27.9659 6.0279 27.9614Q5.99692 27.957 5.96632 27.9505Q5.93572 27.9439 5.90565 27.9352Q5.87558 27.9265 5.84619 27.9158Q5.8168 27.9051 5.78822 27.8923Q5.75964 27.8796 5.73202 27.8648Q5.7044 27.8501 5.67787 27.8335Q5.65133 27.817 5.62602 27.7986Q5.6007 27.7802 5.57672 27.76Q5.55275 27.7399 5.53022 27.7182Q5.5077 27.6965 5.48674 27.6733Q5.46578 27.65 5.44649 27.6254Q5.4272 27.6007 5.40966 27.5748Q5.39213 27.5489 5.37643 27.5218Q5.36074 27.4948 5.34697 27.4667Q5.33319 27.4386 5.3214 27.4096Q5.30961 27.3806 5.29987 27.3509Q5.29012 27.3211 5.28246 27.2908Q5.27481 27.2605 5.26927 27.2297Q5.26374 27.1989 5.26036 27.1677Q5.25699 27.1366 5.25578 27.1054Q5.25457 27.0741 5.25554 27.0428Q5.2565 27.0116 5.25964 26.9804Q5.26277 26.9493 5.26807 26.9185L6.73193 18.3823Q6.75045 18.2745 6.74258 18.1653Q6.73471 18.0562 6.70089 17.9521Q6.66708 17.8481 6.6093 17.7552Q6.55152 17.6623 6.47314 17.5859L0.271484 11.5405Q0.249076 11.5187 0.22824 11.4953Q0.207403 11.472 0.188238 11.4473Q0.169074 11.4225 0.151674 11.3965Q0.134275 11.3705 0.118724 11.3434Q0.103173 11.3162 0.0895459 11.2881Q0.075919 11.2599 0.0642819 11.2309Q0.0526448 11.2018 0.0430537 11.172Q0.0334626 11.1423 0.0259639 11.1119Q0.0184652 11.0815 0.013095 11.0507Q0.0077249 11.0199 0.0045093 10.9887Q0.00129369 10.9576 0.000248158 10.9263Q-0.000797377 10.8951 0.000332206 10.8638Q0.00146179 10.8325 0.00476103 10.8014Q0.00806027 10.7703 0.0135132 10.7395Q0.0189662 10.7087 0.0265465 10.6783Q0.0341269 10.648 0.043798 10.6182Q0.0534691 10.5885 0.0651842 10.5595Q0.0768993 10.5304 0.0906019 10.5023Q0.104304 10.4742 0.119928 10.4471Q0.135552 10.42 0.153022 10.394Q0.170491 10.368 0.189722 10.3434Q0.208953 10.3187 0.229852 10.2954Q0.250752 10.2721 0.273218 10.2503Q0.295685 10.2285 0.319611 10.2084Q0.343537 10.1882 0.368806 10.1697Q0.394075 10.1513 0.420565 10.1346Q0.447055 10.118 0.474639 10.1032Q0.502223 10.0884 0.530766 10.0756Q0.55931 10.0628 0.588676 10.0519Q0.618041 10.0411 0.648087 10.0324Q0.678133 10.0236 0.708714 10.017Q0.739295 10.0104 0.770264 10.0059L9.34082 8.76025Q9.44913 8.74456 9.55049 8.70335Q9.65186 8.66215 9.74038 8.59784Q9.8289 8.53354 9.89941 8.44987Q9.96992 8.36621 10.0183 8.26807L13.8513 0.501953Q13.8652 0.473888 13.8809 0.446854Q13.8967 0.419819 13.9143 0.393945Q13.9319 0.368071 13.9513 0.343482Q13.9706 0.318893 13.9916 0.295709Q14.0127 0.272525 14.0352 0.250857Q14.0578 0.229189 14.0818 0.209142Q14.1059 0.189095 14.1312 0.170766Q14.1566 0.152437 14.1832 0.135914Q14.2097 0.119392 14.2374 0.104756Q14.2651 0.0901193 14.2937 0.0774399Q14.3223 0.0647606 14.3517 0.0540996Q14.3811 0.0434385 14.4112 0.0348471Q14.4413 0.0262558 14.4719 0.0197757Q14.5025 0.0132956 14.5335 0.0089581Q14.5645 0.00462057 14.5957 0.00244656Q14.6269 0.000272542 14.6582 0.000272542Q14.6895 0.000272542 14.7207 0.00244656Q14.7519 0.00462057 14.7829 0.0089581Q14.8139 0.0132956 14.8445 0.0197757Q14.8751 0.0262558 14.9052 0.0348471Q14.9353 0.0434385 14.9647 0.0540996Q14.9941 0.0647606 15.0227 0.0774399Q15.0514 0.0901193 15.079 0.104756Q15.1067 0.119392 15.1332 0.135914Q15.1598 0.152437 15.1852 0.170766Q15.2105 0.189095 15.2346 0.209142Q15.2586 0.229189 15.2812 0.250857Q15.3038 0.272525 15.3248 0.295709Q15.3458 0.318893 15.3651 0.343482Q15.3845 0.368071 15.4021 0.393945Q15.4197 0.419819 15.4355 0.446854Q15.4512 0.473888 15.4651 0.501953Z" fill="#FFFFFF" fill-rule="evenodd" />
</svg>