<?xml version="1.0" encoding="utf-8"?>
<svg width="21" height="43.403" viewBox="0 0 21 43.403" fill="none" xmlns="http://www.w3.org/2000/svg">
  <g id="Toolchains">
    <g transform="translate(6 19.403)">
      <path id="Rectangle" d="M9 0L9 0L9 19.5C9 21.9856 6.98562 24 4.5 24L4.5 24C2.01438 24 0 21.9856 0 19.5L0 0L9 0Z" />
      <path d="M9 2L9 0L0 0L0 19.5C0 21.9856 2.01438 24 4.5 24C6.98562 24 9 21.9856 9 19.5L9 2ZM7 2L7 19.5Q7 22 4.5 22Q2 22 2 19.5L2 2L7 2Z" fill="#FFFFFF" fill-rule="evenodd" />
    </g>
    <g>
      <path id="Oval" d="M0 9.90366C0 4.10466 7.00313 1.90924e-08 7.00313 1.90924e-08C7.00313 1.90924e-08 4.70101 12.9033 10.5 12.9033C16.299 12.9033 14 0 14 0C14 0 21 4.10466 21 9.90366C21 15.7027 16.299 20.4036 10.5 20.4036C4.70101 20.4036 0 15.7027 0 9.90366Z" />
      <path d="M4.48959 15.9141Q2 13.4245 2 9.90366Q2 7.28833 4.55116 4.56777Q4.53333 5.55583 4.57908 6.54415Q4.96608 14.9033 10.5 14.9033Q16.0314 14.9033 16.4222 6.55048Q16.4685 5.55956 16.4509 4.56847Q19 7.28857 19 9.90366Q19 13.4245 16.5104 15.9141Q14.0208 18.4036 10.5 18.4036Q6.97918 18.4036 4.48959 15.9141ZM14.3271 2.63348C14.194 1.08863 14 0 14 0C14 0 15.0081 0.591124 16.2592 1.64164C18.3048 3.35936 21 6.30532 21 9.90366C21 15.7027 16.299 20.4036 10.5 20.4036C4.70101 20.4036 0 15.7027 0 9.90366C0 6.30501 2.69689 3.35886 4.7435 1.6412C5.99487 0.590958 7.00313 0 7.00313 0C7.00313 0 6.80891 1.08861 6.67539 2.63344C6.34925 6.40717 6.38538 12.9033 10.5 12.9033C14.6146 12.9033 14.6523 6.40722 14.3271 2.63348Z" fill="#FFFFFF" fill-rule="evenodd" />
    </g>
  </g>
</svg>