<svg xmlns="http://www.w3.org/2000/svg" width="16" height="16" viewBox="0 0 16 16"><rect x="1" y="1" width="14" height="14" rx="3.5" fill="#D9A300"/><g fill="none" stroke="#2B2100" stroke-width="2.3" stroke-linecap="round" stroke-linejoin="round" transform="translate(3 3) scale(.625)"><path d="M5.75 2.75c-1.4 0-1.9.6-1.9 1.7v1.6c0 .95-.55 1.7-1.6 1.95 1.05.25 1.6 1 1.6 1.95v1.6c0 1.1.5 1.7 1.9 1.7M10.25 2.75c1.4 0 1.9.6 1.9 1.7v1.6c0 .95.55 1.7 1.6 1.95-1.05.25-1.6 1-1.6 1.95v1.6c0 1.1-.5 1.7-1.9 1.7"/></g></svg>
